<svg xmlns="http://www.w3.org/2000/svg" xmlns:xlink="http://www.w3.org/1999/xlink" width="375" height="153" viewBox="0 0 375 153">
  <defs>
    <clipPath id="clip-path">
      <rect id="Rectangle_2" data-name="Rectangle 2" width="65" height="59.976" transform="translate(709.766 -264.692)" fill="none"/>
    </clipPath>
  </defs>
  <g id="Group_6838" data-name="Group 6838" transform="translate(-540.965 357.549)">
    <g id="Group_6836" data-name="Group 6836">
      <rect id="Rectangle_2077" data-name="Rectangle 2077" width="375" height="152.939" transform="translate(540.965 -357.549)" fill="#ebf2ff"/>
      <g id="Group_7052" data-name="Group 7052">
        <g id="Group_7051" data-name="Group 7051">
          <g id="Group_7049" data-name="Group 7049">
            <g id="Group_7042" data-name="Group 7042">
              <path id="Path_11014" data-name="Path 11014" d="M878.953-204.552h-26.27v-130.1h26.35l-.06,130.1" fill="#b8cbe6"/>
            </g>
            <g id="Group_7043" data-name="Group 7043">
              <path id="Path_11015" data-name="Path 11015" d="M855.918-256.759c.051,1.257-.432,2.3-1.079,2.325s-1.214-.973-1.265-2.23.432-2.3,1.079-2.325S855.866-258.017,855.918-256.759Z" fill="#fff"/>
            </g>
            <g id="Group_7044" data-name="Group 7044">
              <path id="Path_11016" data-name="Path 11016" d="M854.705-257.7l5.172.693a.575.575,0,0,1,.5.546h0a.573.573,0,0,1-.551.6.526.526,0,0,1-.119-.007l-4.96-.842Z" fill="#fff"/>
            </g>
            <g id="Group_7048" data-name="Group 7048">
              <g id="Group_7045" data-name="Group 7045">
                <path id="Path_11017" data-name="Path 11017" d="M878.953-341.947v137.392h-9.488v-130.1h-50.61v130.1h-8.62V-341.947Z" fill="#d7e5fb"/>
              </g>
              <g id="Group_7046" data-name="Group 7046">
                <rect id="Rectangle_2078" data-name="Rectangle 2078" width="4.31" height="130.098" transform="translate(814.543 -334.65)" fill="#b8cbe6"/>
              </g>
              <g id="Group_7047" data-name="Group 7047">
                <path id="Path_11018" data-name="Path 11018" d="M878.953-204.555h-4.23V-341.947h4.31v137.392" fill="#b8cbe6"/>
              </g>
            </g>
          </g>
          <g id="Group_7050" data-name="Group 7050">
            <rect id="Rectangle_2079" data-name="Rectangle 2079" width="14.161" height="3.161" transform="translate(836.34 -352.193)" fill="#d7e5fb"/>
          </g>
        </g>
      </g>
      <g id="Group_7054" data-name="Group 7054">
        <rect id="Rectangle_2080" data-name="Rectangle 2080" width="55.721" height="113.901" transform="translate(603.218 -334.501)" fill="#d7e5fb"/>
        <path id="Path_11019" data-name="Path 11019" d="M631.079-334.5s-11.425,51.669-27.861,55.2c0,0,6.641,36.242,7.243,58.7h-7.243V-334.5Z" fill="#9eb7d5"/>
        <path id="Path_11020" data-name="Path 11020" d="M631.265-334.5s11.424,51.669,27.86,55.2c0,0-6.64,36.242-7.242,58.7h7.242V-334.5Z" fill="#9eb7d5"/>
        <rect id="Rectangle_2081" data-name="Rectangle 2081" width="2.031" height="114.117" transform="translate(630.064 -334.717)" fill="#b8cbe6"/>
        <rect id="Rectangle_2082" data-name="Rectangle 2082" width="0.5" height="114.117" transform="translate(616.105 -334.717)" fill="#b8cbe6"/>
        <rect id="Rectangle_2083" data-name="Rectangle 2083" width="0.5" height="114.117" transform="translate(646.185 -334.717)" fill="#b8cbe6"/>
        <path id="Path_11021" data-name="Path 11021" d="M658.94-306.421v.457l-55.721.229v-.457Z" fill="#b8cbe6"/>
        <path id="Path_11022" data-name="Path 11022" d="M658.94-249.753v.448l-55.721.224v-.448Z" fill="#b8cbe6"/>
        <rect id="Rectangle_2084" data-name="Rectangle 2084" width="55.721" height="1.899" transform="translate(603.218 -278.693)" fill="#b8cbe6"/>
        <g id="Group_7053" data-name="Group 7053">
          <path id="Path_11023" data-name="Path 11023" d="M659.765-219.774H602.392V-335.327h57.373Zm-55.722-1.651h54.069v-112.25H604.044Z" fill="#b8cbe6"/>
        </g>
      </g>
      <rect id="Rectangle_2085" data-name="Rectangle 2085" width="20.392" height="5.634" transform="translate(746.237 -316.292)" fill="#b8cbe6"/>
      <rect id="Rectangle_2086" data-name="Rectangle 2086" width="20.392" height="5.634" transform="translate(736.903 -310.658)" fill="#d7e5fb"/>
      <g id="Group_7055" data-name="Group 7055">
        <rect id="Rectangle_2087" data-name="Rectangle 2087" width="20.392" height="5.634" transform="translate(565.57 -253.812)" fill="#b8cbe6"/>
        <rect id="Rectangle_2088" data-name="Rectangle 2088" width="20.392" height="5.634" transform="translate(556.98 -247.274)" fill="#d7e5fb"/>
      </g>
      <g id="Group_7061" data-name="Group 7061">
        <g id="Group_6835" data-name="Group 6835">
          <g id="Group_6834" data-name="Group 6834" clip-path="url(#clip-path)">
            <g id="Group_7060" data-name="Group 7060">
              <g id="Group_7059" data-name="Group 7059">
                <path id="Path_11024" data-name="Path 11024" d="M731.274-212.315A19.782,19.782,0,0,0,719-213.806c-2.226.368-4.547,1.034-6.062,2.706s-1.8,4.613-.062,6.049a5.817,5.817,0,0,0,3.822.97c3.244-.038,6.843-.61,9.435,1.342,1.478,1.113,2.462,2.963,4.23,3.511a4.181,4.181,0,0,0,4.6-2.045,7.143,7.143,0,0,0,.521-5.269A8.047,8.047,0,0,0,731.274-212.315Z" fill="#d7e5fb"/>
                <path id="Path_11025" data-name="Path 11025" d="M739.824-228.816c-2.282,3.258-6.717,2.18-8.774.191s-2.926-4.872-3.718-7.621c-1.807-6.28-3.63-12.87-2.286-19.265a10.7,10.7,0,0,1,2.461-5.238,5.591,5.591,0,0,1,5.3-1.762c2.237.591,3.627,2.779,4.632,4.863a45.923,45.923,0,0,1,4.54,19.708c.011,3.174-.364,6.5-2.156,9.124" fill="#d7e5fb"/>
                <path id="Path_11026" data-name="Path 11026" d="M746.092-224.141c-2.478-2.94-2.948-7.228-1.846-10.911a21.023,21.023,0,0,1,6.465-9.373,34.787,34.787,0,0,1,11.577-6.828,12.344,12.344,0,0,1,5.206-.885,5.467,5.467,0,0,1,4.371,2.647c1.219,2.323.051,5.14-1.213,7.438a88.174,88.174,0,0,1-7.6,11.574c-2.279,2.937-4.889,5.834-8.363,7.161s-7.081,1.171-8.922-1.236" fill="#d7e5fb"/>
                <g id="Group_7056" data-name="Group 7056">
                  <path id="Path_11027" data-name="Path 11027" d="M739.979-179.665a7.043,7.043,0,0,1-.206-1.48l-.394-4.04a58.086,58.086,0,0,0-.909-5.927,45.77,45.77,0,0,0-2.155-7,25.766,25.766,0,0,0-3.574-6.329,13.328,13.328,0,0,0-4.517-3.754,12.656,12.656,0,0,0-3.8-1.186,7.113,7.113,0,0,1-1.474-.213,6.838,6.838,0,0,1,1.5-.024,11.553,11.553,0,0,1,3.967,1.033,13.329,13.329,0,0,1,4.766,3.786,25.189,25.189,0,0,1,3.7,6.457,42.777,42.777,0,0,1,2.14,7.109,50.263,50.263,0,0,1,.788,6c.128,1.715.177,3.1.2,4.065A6.865,6.865,0,0,1,739.979-179.665Z" fill="#b8cbe6"/>
                </g>
                <g id="Group_7057" data-name="Group 7057">
                  <path id="Path_11028" data-name="Path 11028" d="M739.7-182.774a2.937,2.937,0,0,1-.04-.688c0-.515,0-1.166.005-1.964,0-1.705,0-4.172-.088-7.219-.15-6.093-.675-14.5-1.689-23.751s-2.375-17.567-3.608-23.536c-.292-1.5-.585-2.843-.862-4.021s-.489-2.2-.706-3.025l-.46-1.91a2.939,2.939,0,0,1-.12-.677,2.831,2.831,0,0,1,.239.644l.571,1.882c.253.817.512,1.829.808,3.006s.633,2.517.952,4.01a222.959,222.959,0,0,1,3.794,23.56c1.016,9.265,1.473,17.7,1.514,23.811.036,3.054-.029,5.527-.107,7.233-.049.8-.088,1.447-.12,1.963A2.954,2.954,0,0,1,739.7-182.774Z" fill="#b8cbe6"/>
                </g>
                <g id="Group_7058" data-name="Group 7058">
                  <path id="Path_11029" data-name="Path 11029" d="M739.666-199.045a13.137,13.137,0,0,1,.014-2.052c.076-1.318.257-3.225.629-5.561a73.028,73.028,0,0,1,1.809-8.1,71.607,71.607,0,0,1,3.389-9.585,51.049,51.049,0,0,1,9.952-15.491,25.346,25.346,0,0,1,2.341-2.176c.36-.3.677-.606,1-.845s.627-.434.908-.627a12.866,12.866,0,0,1,1.729-1.106,60.593,60.593,0,0,0-5.666,5.052,53.76,53.76,0,0,0-9.7,15.435,76.32,76.32,0,0,0-3.408,9.5,82.083,82.083,0,0,0-1.925,8.021c-.424,2.311-.669,4.2-.817,5.506A13.327,13.327,0,0,1,739.666-199.045Z" fill="#b8cbe6"/>
                </g>
              </g>
            </g>
          </g>
        </g>
      </g>
      <path id="Path_11052" data-name="Path 11052" d="M796.941-281.08,791.918-230.7l2.016.8,2.828,1.126,14.029-15.5-8.915-26.563Z" fill="#b79479"/>
      <g id="Group_7070" data-name="Group 7070">
        <path id="Path_11053" data-name="Path 11053" d="M801.343-294.005s3.972-7.506,5.455,5.506-13.763,46.877-13.763,46.877l-.255-30.827S791.765-286.461,801.343-294.005Z" fill="#a3c3a5"/>
      </g>
      <g id="Group_7074" data-name="Group 7074">
        <path id="Path_11055" data-name="Path 11055" d="M797.065-325.529c-.17.138-8.065,1.626-1.941,11.664l7.593-9.509Z"/>
        <path id="Path_11056" data-name="Path 11056" d="M800.087-323.04s-3.65.732-4.349,2.935l.318-3.811s-1.52-5.183,2.812-7.3a9.013,9.013,0,0,1,10.621,2.084c1.219,1.309,6.857,6.709,6.857,6.709s4.964,2.419-.79,9.481l-3.947-.11-1.321-6.133-5.485-2.968Z"/>
        <path id="Path_11057" data-name="Path 11057" d="M800.223-311.366a3.526,3.526,0,0,1-3.5,3.553,3.527,3.527,0,0,1-3.554-3.5,3.526,3.526,0,0,1,3.475-3.553A3.561,3.561,0,0,1,800.223-311.366Z" fill="#b79479"/>
        <path id="Path_11058" data-name="Path 11058" d="M801.255-305.827l.508,13.115a13.277,13.277,0,0,0,1.144-1.536l4.053.785c2.776-.052,5.42-.415,5.721-3.4l-.016-10.222Z" fill="#d4b698"/>
        <path id="Path_11059" data-name="Path 11059" d="M801.665-296.29s8.822-2.32,9.268-8.686l-9.568,1.985Z" fill="#b79479"/>
        <path id="Path_11060" data-name="Path 11060" d="M806.4-300.855l-4.083.076a7.377,7.377,0,0,1-7.483-7.271c0-.094,0-.188,0-.282l.169-9.474a8.685,8.685,0,0,1,8.472-8.565h0c4.751-.089,9.492,3.714,9.563,8.512l-.376,10.774A6.428,6.428,0,0,1,806.4-300.855Z" fill="#d4b698"/>
        <g id="Group_7072" data-name="Group 7072">
          <path id="Path_11061" data-name="Path 11061" d="M799.181-310.857l-.254,1.755a.632.632,0,0,0,.53.719l.04.005.91.074" fill="none" stroke="#202021" stroke-linecap="round" stroke-linejoin="round" stroke-width="0.449"/>
          <path id="Path_11062" data-name="Path 11062" d="M804.374-316.827s-1.907-.255-1.936.776c0,0-.005.7,1.659.878s2.1.029,2.257-.624S805.265-316.8,804.374-316.827Z"/>
          <path id="Path_11063" data-name="Path 11063" d="M796.773-315.733s1.578-.177,1.7.8c0,0,.068.658-1.313.772s-1.827-.13-1.953-.662C795.065-315.432,796.024-315.736,796.773-315.733Z"/>
          <path id="Path_11064" data-name="Path 11064" d="M802.548-311.951a.7.7,0,0,0,.729.669h.011a.71.71,0,0,0,.665-.75.7.7,0,0,0-.729-.67h-.01A.711.711,0,0,0,802.548-311.951Z"/>
          <path id="Path_11065" data-name="Path 11065" d="M796.239-312.078a.7.7,0,0,0,.728.67h.012a.713.713,0,0,0,.665-.751.7.7,0,0,0-.729-.67H796.9A.712.712,0,0,0,796.239-312.078Z"/>
          <path id="Path_11066" data-name="Path 11066" d="M797.2-306.094l.423-1.193a1.473,1.473,0,0,1,1.235-.477l3.379.275a1.476,1.476,0,0,1,1.093.6l.718,1.351Z"/>
        </g>
        <path id="Path_11067" data-name="Path 11067" d="M810.308-311.561s-3.372-.937-.674-6.968c0,0-8.4.325-9.439-5.811l4.358-3.276,8.03,2.872,1.867,5.727-1.161,4.582Z"/>
        <g id="Group_7073" data-name="Group 7073">
          <path id="Path_11068" data-name="Path 11068" d="M817.365-311.691a3.526,3.526,0,0,1-3.5,3.553,3.527,3.527,0,0,1-3.554-3.5,3.526,3.526,0,0,1,3.475-3.553A3.561,3.561,0,0,1,817.365-311.691Z" fill="#d4b698"/>
          <path id="Path_11069" data-name="Path 11069" d="M812.618-310.543s-.038-2.583,2.412-2.222" fill="none" stroke="#202021" stroke-linecap="round" stroke-linejoin="round" stroke-width="0.449"/>
        </g>
        <path id="Path_11070" data-name="Path 11070" d="M800.2-324.339a5.315,5.315,0,0,0-4.172,2.585l2.33-7.3,5.254-.868,3.547,1.861-1.451,4.69Z"/>
      </g>
      <line id="Line_752" data-name="Line 752" x1="1.923" y2="0.366" transform="translate(800.374 -305.452)" fill="none" stroke="#000" stroke-linecap="round" stroke-linejoin="round" stroke-width="0.519"/>
      <line id="Line_753" data-name="Line 753" y1="2.463" x2="4.588" transform="translate(808.497 -267.523)" fill="none" stroke="#30443e" stroke-miterlimit="10" stroke-width="0.5"/>
      <g id="Group_7075" data-name="Group 7075">
        <path id="Path_1" data-name="Path 1" d="M791.918-230.7l-2.543,3.755.349,5.507,1.027,2.167s.785.479,1.067.385c.356-.119.791-.793.791-.793s.369,1.779,1.468,1.274,2.685-3.7,2.685-3.7v-6.667Z" fill="#b79479"/>
        <path id="Path_11077" data-name="Path 11077" d="M788.971-226.859s-.891,2.926-.926,3.382a22.189,22.189,0,0,0,1.094,3.3s1.166-.111.954-1.074-.375-2.379-.375-2.379l1.09-2.516,1.11-.539c1.542-3.021,0-4.012,0-4.012Z" fill="#d4b698"/>
      </g>
      <g id="Group_7076" data-name="Group 7076">
        <path id="Path_11078" data-name="Path 11078" d="M756.771-260.364a19.087,19.087,0,0,1-10.859,2.955c-6.749-.079-10.352,6.97-10.352,6.97l8.665,1.324a12.064,12.064,0,0,1,7.62-5.018,14.585,14.585,0,0,0,8.006-4.416Z" fill="#559550"/>
        <path id="Path_11079" data-name="Path 11079" d="M757.8-260.467a18.928,18.928,0,0,1-11.136,1.249c-6.6-1.13-11.337,5.318-11.337,5.318l8.257,2.663a12.211,12.211,0,0,1,8.325-3.8,14.672,14.672,0,0,0,8.6-3.145Z" fill="#68b358"/>
        <path id="Path_11080" data-name="Path 11080" d="M762.665-259.028a35.723,35.723,0,0,1-10.614,4.912l-5.794-1.963c-1.221-.328-1.431.391-1.431.391a1.249,1.249,0,0,0,.918,1.357l4.71,2.413a5.519,5.519,0,0,0,1.967.378c1.61.007,5.667-1.237,10.088-3Z" fill="#d4b698"/>
        <path id="Path_11081" data-name="Path 11081" d="M759.787-260.22a17.912,17.912,0,0,1-6.637-.107c-3.04-.649-2.087,1.1-1.158,1.415s3.544,1.072,3.914,1.333,1.164.87-.337,2.659c-.831.992,8.391-4.473,8.391-4.473Z" fill="#d4b698"/>
      </g>
      <path id="Path_11071" data-name="Path 11071" d="M794.565-232.223s.255,11.853-1.019,15.957c-.629,2.025-2.294,11.717-2.294,11.717H825.4s0-6.474.255-11.717-.764-16.185-.764-16.185Z"/>
      <g id="Group_7071" data-name="Group 7071">
        <path id="Path_11054" data-name="Path 11054" d="M812.915-296.652s9.025,6.913,10.449,13.248c1.331,5.919,3.569,51.463,3.569,51.463l-33.388.255c-3.4-.9-.41-30.27-1.02-31.337C792.81-294.2,812.915-296.652,812.915-296.652Z" fill="#a3c3a5"/>
      </g>
      <path id="Path_11072" data-name="Path 11072" d="M813.165-298.435l-9.94,1.974-1.506,2.615-.083-3.083a6.843,6.843,0,0,0-1.783,1.357c-.259.44-1.275,4.586-1.275,4.586l1.976-3.057,1.147,3.757.03-.142a29.834,29.834,0,0,1,2.008-3.68c0,.382,2.422,5.35,2.422,5.35l8.41-6.242Z" fill="#30443e"/>
      <path id="Path_11073" data-name="Path 11073" d="M797.495-272.322l-11.341,7.139-24.089,5.472-2.676,5.35,25.449-1.626a20.413,20.413,0,0,0,7.214-1.822l13.554-6.233Z" fill="#d4b698"/>
      <path id="Path_11074" data-name="Path 11074" d="M796.476-273.082l2.549-1.656,9.94,9.677-2.676,1.911Z" fill="#30443e"/>
      <path id="Path_11075" data-name="Path 11075" d="M799.024-274.742l4.841-3.567a10.048,10.048,0,0,1,2.931-4.586" fill="none" stroke="#30443e" stroke-miterlimit="10" stroke-width="0.5"/>
      <path id="Path_2" data-name="Path 2" d="M639.866-291.187s-13.9,22.4-13.9,26.179,7.157,17.734,7.157,17.734Z"/>
      <g id="Group_7068" data-name="Group 7068">
        <g id="Group_7066" data-name="Group 7066">
          <path id="Path_11031" data-name="Path 11031" d="M661.319-305.866l-2.942,11.345-10.493-3.562,4.5-16.89Z" fill="#d4b698"/>
          <path id="Path_11032" data-name="Path 11032" d="M659.317-298.26c.1-.181-2.142-7.182-2.142-7.182l3.348,2.263Z" fill="#b79479"/>
          <path id="Path_11033" data-name="Path 11033" d="M667.943-326.612s5.056,1.738,4.242,8.325c0,0-.642,4.766-1.622,11.619a5.732,5.732,0,0,1-6.426,4.94,5.77,5.77,0,0,1-1.248-.309,17.121,17.121,0,0,1-6.192-4.142l-2.539-3.321c-5.7-9.029,2.839-20.513,13.045-17.357C667.447-326.781,667.694-326.7,667.943-326.612Z" fill="#d4b698"/>
          <g id="Group_7064" data-name="Group 7064">
            <g id="Group_7063" data-name="Group 7063">
              <path id="Path_11035" data-name="Path 11035" d="M669.176-318.393s1.776.009,1.777.811c0,0-.012.541-1.561.5s-1.948-.2-2.079-.728S668.345-318.464,669.176-318.393Z"/>
            </g>
          </g>
          <path id="Path_11036" data-name="Path 11036" d="M647.681-324.08c.925-2.637,4.076-5.233,6.775-5.96a15.15,15.15,0,0,1,17.116,6.437c-17.015-7.409-12.519,7.552-12.519,7.552a19.4,19.4,0,0,0-2.813,3.389c-2.068,4.756-5.212,4.212-5.212,4.212C648.281-316.008,646.184-319.813,647.681-324.08Z" fill="#bd5950"/>
          <path id="Path_11037" data-name="Path 11037" d="M668.882-313.2a.751.751,0,0,0,.85.636.751.751,0,0,0,.637-.85.752.752,0,0,0-.851-.636h0A.751.751,0,0,0,668.882-313.2Z"/>
          <line id="Line_750" data-name="Line 750" x1="1.774" y1="0.734" transform="translate(668.063 -308.852)" fill="none" stroke="#000" stroke-linecap="round" stroke-linejoin="round" stroke-width="0.519"/>
          <g id="Group_7065" data-name="Group 7065">
            <path id="Path_11038" data-name="Path 11038" d="M652.917-315.3a3.523,3.523,0,0,0,2.552,4.279,3.523,3.523,0,0,0,4.279-2.552,3.523,3.523,0,0,0-2.552-4.279h0a3.522,3.522,0,0,0-4.279,2.55Z" fill="#d4b698"/>
            <path id="Path_11039" data-name="Path 11039" d="M657.672-313.374s.626-2.475-1.84-2.684" fill="none" stroke="#000" stroke-linecap="round" stroke-linejoin="round" stroke-width="0.519"/>
          </g>
        </g>
        <path id="Path_11040" data-name="Path 11040" d="M632.171-215.2a86.6,86.6,0,0,0,.976,10.579H665.62c-.637-2.392-1.249-4.952-1.739-7.646a174.99,174.99,0,0,1-2.234-22.133H634.614S632.171-220.033,632.171-215.2Z" fill="#313131"/>
        <path id="Path_11041" data-name="Path 11041" d="M634.753-230.627c8.616.566,21.483.637,26.978.637a2.681,2.681,0,0,0,2.682-2.635c.008-.578.021-1.236.033-1.969.151-9.526.508-31.232.721-39.682.277-10.972-5.352-22.648-5.352-22.648L649-301.893a36.8,36.8,0,0,0-13.755,25.815c-1.257,15.023-2.339,31.986-2.846,40.223-.054.909-.1,1.709-.142,2.392A2.677,2.677,0,0,0,634.753-230.627Z" fill="#313131"/>
        <path id="Path_11042" data-name="Path 11042" d="M677.376-265.008l21.278,7.213.2,4.9-30.43-3.342Z" fill="#d4b698"/>
        <path id="Path_11043" data-name="Path 11043" d="M696.981-255.738a35.959,35.959,0,0,0,11.739.794l4.735-3.93c1.028-.747,1.484-.148,1.484-.148a1.256,1.256,0,0,1-.373,1.605l-3.554,3.962a5.527,5.527,0,0,1-1.712,1.063c-1.509.587-5.768.88-10.555.818Z" fill="#d5a579"/>
        <path id="Path_11044" data-name="Path 11044" d="M699.254-257.892a18.038,18.038,0,0,0,6.195-2.49c2.622-1.7,2.356.281,1.6.913s-2.942,2.282-3.2,2.662-.78,1.236,1.274,2.376c1.138.632-8.273-1.311-8.273-1.311Z" fill="#d5a579"/>
        <g id="Group_7067" data-name="Group 7067">
          <path id="Path_11045" data-name="Path 11045" d="M658.113-292.737,673.8-267.281l25.564,8.588-.837,7.118-26.072-3.258a11.853,11.853,0,0,1-7-3.466l-21.661-22.1Z" fill="#313131"/>
        </g>
        <path id="Path_11046" data-name="Path 11046" d="M642.787-318.53c0,9.023,9.778,15.777,16.345,16.338a4.108,4.108,0,0,0,1.207-.059c4.92-1.094-.733-13.172,1.446-18.936.683-1.8,13.692,4.692,13.692,2.657,0-.457-.016-.91-.054-1.353a16.346,16.346,0,0,0-17.642-14.938A16.345,16.345,0,0,0,642.787-318.53Z" fill="#e1cc73"/>
        <path id="Path_11047" data-name="Path 11047" d="M648.515-301.494l.978-2.933,8.242,3.492s2.209.759,2.082,4.01S648.515-301.494,648.515-301.494Z" fill="#313131"/>
        <path id="Path_11048" data-name="Path 11048" d="M661.089-308.056c.7,2.371.277,4.747-.7,5.723a.206.206,0,0,0-.05.084c4.92-1.094-.733-13.172,1.446-18.936.683-1.8,13.692,4.692,13.692,2.657,0-.457-.016-.91-.054-1.353a33.627,33.627,0,0,1-6.3-1.685,47.024,47.024,0,0,0-8.032-2.131,8.253,8.253,0,0,0-1.468,4.54A36.155,36.155,0,0,0,661.089-308.056Z" fill="#313131"/>
        <path id="Path_11049" data-name="Path 11049" d="M677.154-324.118l-17.882-1.955a2.693,2.693,0,0,0-1.956,2.511c-.14,2.094,2.654,4.189,3.912,5.167s10.058,2.653,13.411,5.027,3.353,3.073,5.728,3.91C680.365-309.455,680.786-318.532,677.154-324.118Z" fill="#c1dedf" opacity="0.8" style="isolation: isolate"/>
        <circle id="Ellipse_574" data-name="Ellipse 574" cx="1.397" cy="1.397" r="1.397" transform="translate(659.272 -324.537)"/>
        <path id="Path_11050" data-name="Path 11050" d="M637.6-286.5l5.746,1.762,6.705,1.676s13.132,20.388,17.6,23.461,31.2,6.7,31.2,6.7l.512-5.8L673.8-267.281l-9.5-15.5s-3.632-13.406-8.1-16.2-7.683-2.514-7.683-2.514A37.6,37.6,0,0,0,637.6-286.5Z" fill="#e1cc73"/>
        <path id="Path_11051" data-name="Path 11051" d="M634.753-230.627c8.616.566,21.483.637,26.978.637a2.681,2.681,0,0,0,2.682-2.635c.008-.578.021-1.236.033-1.969l-32.049-1.26c-.054.909-.1,1.709-.142,2.392A2.678,2.678,0,0,0,634.753-230.627Z" fill="#e1cc73"/>
        <line id="Line_751" data-name="Line 751" x1="13.272" y1="13.685" transform="translate(651.728 -272.448)" fill="none" stroke="#000" stroke-miterlimit="10" stroke-width="0.5"/>
      </g>
    </g>
    <path id="Path_3" data-name="Path 3" d="M661.589-313.532s7.285,3.283,9.7,1.335c2.55,1.806.709,14.756-9.953,9.465C662.786-304.565,662.568-307.088,661.589-313.532Z" fill="#233d83"/>
    <g id="Group_6837" data-name="Group 6837">
      <path id="Path_4" data-name="Path 4" d="M794.9-311.664s.842,3.073,14.227.383c-.126,1.461-2.688,6.278,1.924,8.266-.812.769-3.255,3.655-10.1,2.126-2.4-.581-4.99-1.382-6.047-5.766A18.467,18.467,0,0,1,794.9-311.664Z" fill="#233d83"/>
      <line id="Line_722" data-name="Line 722" x1="1.232" y2="0.537" transform="translate(809.079 -311.638)" fill="#233d83" stroke="#233d83" stroke-linecap="round" stroke-miterlimit="10" stroke-width="0.25"/>
      <line id="Line_723" data-name="Line 723" x1="1.775" y2="5.238" transform="translate(810.933 -308.304)" fill="#233d83" stroke="#233d83" stroke-linecap="round" stroke-miterlimit="10" stroke-width="0.25"/>
    </g>
  </g>
</svg>
