<svg xmlns="http://www.w3.org/2000/svg" xmlns:xlink="http://www.w3.org/1999/xlink" width="375" height="152.998" viewBox="0 0 375 152.998">
  <defs>
    <linearGradient id="linear-gradient" x1="-76.322" y1="82.46" x2="-76.291" y2="82.46" gradientUnits="objectBoundingBox">
      <stop offset="0" stop-color="#e1cc73"/>
      <stop offset="1" stop-color="#c8a845"/>
    </linearGradient>
  </defs>
  <g id="Group_6839" data-name="Group 6839" transform="translate(-540.943 187.095)">
    <g id="Group_7041" data-name="Group 7041">
      <rect id="Rectangle_2061" data-name="Rectangle 2061" width="374.957" height="152.982" transform="translate(540.986 -187.095)" fill="#ebf2ff"/>
      <rect id="Rectangle_2062" data-name="Rectangle 2062" width="175.98" height="143.983" transform="translate(540.954 -178.118)" fill="#d7e5fb"/>
      <g id="Group_7017" data-name="Group 7017">
        <path id="Path_10952" data-name="Path 10952" d="M636.573-122.739V-99.48h14.363v-7.809h9.659v7.809h2.49v-7.809h9.651v7.809h2.07v-7.809h9.669v7.809h2.5v-7.809h9.661v7.809h2.811a2.14,2.14,0,0,1,1.52.63,2.125,2.125,0,0,1,.629,1.511,2.158,2.158,0,0,1-2.149,2.149H636.573v23.257h6.749a3.883,3.883,0,0,1-3.85-3.5l-.92.651v-2.351l.93.9a3.872,3.872,0,0,1,3.84-3.419h7.808a3.858,3.858,0,0,1,3.8,3.25l.76-.731v2.353l-.74-.521a3.863,3.863,0,0,1-3.821,3.37h11.307a3.885,3.885,0,0,1-3.85-3.5l-.92.651v-2.351l.929.9a3.874,3.874,0,0,1,3.841-3.419h7.809a3.858,3.858,0,0,1,3.8,3.25l.76-.731v2.351l-.74-.521a3.863,3.863,0,0,1-3.82,3.37h12.719a3.876,3.876,0,0,1-3.841-3.5l-.929.651v-2.351l.939.9a3.87,3.87,0,0,1,3.831-3.419h7.809a3.868,3.868,0,0,1,3.81,3.25l.759-.731v2.351l-.74-.521a3.872,3.872,0,0,1-3.829,3.37h8.669a2.14,2.14,0,0,1,1.52.63,2.125,2.125,0,0,1,.629,1.51,2.154,2.154,0,0,1-2.149,2.151H636.573v23.256h12.239v-10.2a3.543,3.543,0,0,1,2.11-3.24.307.307,0,0,1-.13-.26.316.316,0,0,1,.312-.32h2.358a.322.322,0,0,1,.32.32.351.351,0,0,1-.1.24,3.414,3.414,0,0,1,2.08,3.14v10.318h2.609v-10.2a3.537,3.537,0,0,1,2.121-3.24.291.291,0,0,1-.141-.26.317.317,0,0,1,.314-.32h2.357a.315.315,0,0,1,.32.312v.008a.351.351,0,0,1-.1.24,3.414,3.414,0,0,1,2.08,3.14v10.318h2.67v-10.2a3.535,3.535,0,0,1,2.119-3.24.319.319,0,0,1-.139-.26.322.322,0,0,1,.32-.32h2.344a.315.315,0,0,1,.321.311v.009a.343.343,0,0,1-.1.24,3.412,3.412,0,0,1,2.081,3.14V-44.39h2.7v-10.2a3.536,3.536,0,0,1,2.121-3.24.3.3,0,0,1-.141-.26.317.317,0,0,1,.314-.32h2.357a.314.314,0,0,1,.319.311v.009a.35.35,0,0,1-.1.24,3.414,3.414,0,0,1,2.08,3.14v10.318h2.529v-10.2a3.544,3.544,0,0,1,2.111-3.24.314.314,0,0,1-.14-.26.323.323,0,0,1,.328-.32h2.352a.321.321,0,0,1,.32.32.318.318,0,0,1-.11.24,3.407,3.407,0,0,1,2.09,3.14v10.318h5.379a2.146,2.146,0,0,1,1.52.63,2.149,2.149,0,0,1,.629,1.52,2.15,2.15,0,0,1-2.149,2.141H636.573v6H632.4v-6H540.944V-59.645h.969l.121,1.23,2.69,2.65v11.378h6.388V-55.9l2.651-2.651v-1.1h3.073l.12,1.23,2.689,2.65v11.378H563.7V-55.9l2.65-2.651v-1.1h3.069l.121,1.23,2.69,2.65v11.378h6.249v-10.2a3.543,3.543,0,0,1,2.11-3.24.316.316,0,0,1-.14-.26.324.324,0,0,1,.328-.32h2.341a.324.324,0,0,1,.331.319h0a.325.325,0,0,1-.11.24,3.4,3.4,0,0,1,2.079,3.14V-44.39h2.621v-10.2a3.542,3.542,0,0,1,2.109-3.24.309.309,0,0,1-.129-.26.315.315,0,0,1,.31-.32h2.36a.321.321,0,0,1,.32.32.348.348,0,0,1-.1.24,3.414,3.414,0,0,1,2.081,3.14v10.318h2.66v-10.2a3.536,3.536,0,0,1,2.121-3.24.3.3,0,0,1-.141-.26.317.317,0,0,1,.314-.32H602.3a.314.314,0,0,1,.319.311v.009a.35.35,0,0,1-.1.24,3.414,3.414,0,0,1,2.08,3.14v10.318h2.7v-10.2a3.535,3.535,0,0,1,2.119-3.24.293.293,0,0,1-.139-.26.315.315,0,0,1,.31-.32h2.36a.315.315,0,0,1,.32.312v.008a.348.348,0,0,1-.1.24,3.414,3.414,0,0,1,2.081,3.14V-44.4h2.53V-54.6a3.542,3.542,0,0,1,2.109-3.24.319.319,0,0,1-.139-.26.324.324,0,0,1,.328-.32h2.341a.324.324,0,0,1,.331.319h0a.319.319,0,0,1-.111.24,3.4,3.4,0,0,1,2.081,3.14V-44.4h8.688V-67.644H540.944v-4.291h1.992V-83.443l2.65-2.66v-1.1h3.066l.121,1.24,2.69,2.649v11.379h4.02V-83.443l2.649-2.66v-1.1H561.2l.12,1.24,2.69,2.649v11.379h8.959a3.876,3.876,0,0,1-3.841-3.5l-.919.651v-2.351l.929.9a3.87,3.87,0,0,1,3.831-3.419h7.819a3.856,3.856,0,0,1,3.8,3.25l.76-.731v2.355l-.741-.521a3.869,3.869,0,0,1-3.819,3.37h11.3a3.875,3.875,0,0,1-3.84-3.5l-.92.651v-2.351l.93.9a3.868,3.868,0,0,1,3.83-3.419h7.815a3.858,3.858,0,0,1,3.8,3.25l.76-.731v2.351l-.74-.521a3.871,3.871,0,0,1-3.821,3.37h12.72a3.873,3.873,0,0,1-3.839-3.5l-.931.651v-2.351l.941.9a3.862,3.862,0,0,1,3.829-3.419h7.811a3.868,3.868,0,0,1,3.81,3.25l.75-.731v2.351l-.73-.521a3.881,3.881,0,0,1-3.83,3.37H632.4V-95.192H540.944V-99.48h4.592a3.666,3.666,0,0,1-2.71-3.19l-.88.62v-2.23l.89.849a3.675,3.675,0,0,1,3.64-3.25h7.418a3.685,3.685,0,0,1,3.621,3.091l.71-.69v2.229l-.7-.5a3.663,3.663,0,0,1-2.689,3.071h10.2a3.692,3.692,0,0,1-2.71-3.19l-.87.62v-2.23l.88.849a3.684,3.684,0,0,1,3.64-3.25h7.418a3.685,3.685,0,0,1,3.621,3.091l.72-.69v2.229l-.7-.5a3.676,3.676,0,0,1-2.7,3.071h6.239v-7.809h9.669v7.809h2.48v-7.809H602.4v7.809h2.071v-7.809h9.658v7.809h2.511v-7.809h9.66v7.809H632.4v-23.257h-91.46v-17.477l.9-.9V-142.2h3.049l.111,1.219,2.68,2.63v11.309h6.039V-138.48l2.639-2.64v-1.089h3.05l.111,1.219,2.68,2.63v11.309h3.99V-138.48l2.63-2.64v-1.089h3.049l.111,1.219,2.679,2.63v11.309h4.021V-138.48l2.63-2.64v-1.089h3.049l.111,1.219,2.679,2.63v11.309h3.911a1.344,1.344,0,0,1,.22.021h.22v-11.52l2.649-2.649v-1.1h3.081l.11,1.231,2.7,2.649v11.39h4.02v-11.52l2.65-2.649v-1.1h3.07l.119,1.231,2.691,2.649v11.39h4.043v-11.52l2.651-2.649v-1.1h3.069l.111,1.231,2.7,2.649v11.39h7.239v-23.258H540.944v-4.289H578.47V-164.78a3.525,3.525,0,0,1,2.11-3.229.349.349,0,0,1-.14-.271.332.332,0,0,1,.33-.32h2.339a.33.33,0,0,1,.331.32.306.306,0,0,1-.11.24,3.4,3.4,0,0,1,2.079,3.151v10.319h2.621v-10.21a3.526,3.526,0,0,1,2.109-3.229.345.345,0,0,1-.129-.271.322.322,0,0,1,.32-.32h2.35a.329.329,0,0,1,.32.32.329.329,0,0,1-.1.24,3.422,3.422,0,0,1,2.081,3.151v10.319h2.665v-10.21a3.521,3.521,0,0,1,2.121-3.229.325.325,0,0,1-.141-.271.323.323,0,0,1,.321-.32h2.35a.321.321,0,0,1,.319.32.33.33,0,0,1-.1.24,3.419,3.419,0,0,1,2.08,3.151v10.319h2.7v-10.21a3.519,3.519,0,0,1,2.119-3.229.325.325,0,0,1-.139-.271.322.322,0,0,1,.32-.32h2.35a.322.322,0,0,1,.32.32.329.329,0,0,1-.1.24,3.422,3.422,0,0,1,2.081,3.151v10.319h2.53v-10.21a3.526,3.526,0,0,1,2.109-3.229.355.355,0,0,1-.139-.271.331.331,0,0,1,.33-.32h2.339a.331.331,0,0,1,.331.32.3.3,0,0,1-.111.24,3.407,3.407,0,0,1,2.081,3.151v10.319h8.688v-14.089a2.094,2.094,0,0,1,2.091-2.08,2.091,2.091,0,0,1,2.08,2.08v14.089h12.239v-10.21a3.525,3.525,0,0,1,2.11-3.229.341.341,0,0,1-.13-.271.323.323,0,0,1,.319-.32h2.351a.329.329,0,0,1,.32.32.329.329,0,0,1-.1.24,3.422,3.422,0,0,1,2.08,3.151v10.319h2.609v-10.21a3.521,3.521,0,0,1,2.121-3.229.321.321,0,0,1-.141-.271.324.324,0,0,1,.321-.32h2.35a.322.322,0,0,1,.32.32.329.329,0,0,1-.1.24,3.419,3.419,0,0,1,2.08,3.151v10.319h2.67v-10.21a3.519,3.519,0,0,1,2.119-3.229.355.355,0,0,1-.139-.271.329.329,0,0,1,.32-.32h2.341a.322.322,0,0,1,.321.32.329.329,0,0,1-.1.24,3.422,3.422,0,0,1,2.081,3.151v10.319h2.7v-10.21a3.521,3.521,0,0,1,2.121-3.229.325.325,0,0,1-.141-.271.323.323,0,0,1,.321-.32h2.35a.321.321,0,0,1,.319.32.329.329,0,0,1-.1.24,3.419,3.419,0,0,1,2.08,3.151v10.319h2.529v-10.21a3.528,3.528,0,0,1,2.111-3.229.346.346,0,0,1-.14-.271.332.332,0,0,1,.33-.32h2.35a.329.329,0,0,1,.32.32.3.3,0,0,1-.11.24,3.414,3.414,0,0,1,2.09,3.151v10.319h5.379a2.14,2.14,0,0,1,1.52.63,2.108,2.108,0,0,1,.629,1.509,2.157,2.157,0,0,1-2.149,2.15H636.573v23.258h10.649v-11.52l2.659-2.649v-1.1h3.071l.11,1.231,2.7,2.649v11.39h6.088v-11.52l2.651-2.649v-1.1h3.07l.11,1.231,2.7,2.649v11.39h4.02v-11.52l2.651-2.649v-1.1h3.069l.121,1.231,2.69,2.649v11.39h4.05v-11.52l2.649-2.649v-1.1H692.7l.12,1.231,2.69,2.649v11.39h3.94a2.139,2.139,0,0,1,1.52.63,2.119,2.119,0,0,1,.629,1.51,2.158,2.158,0,0,1-2.149,2.149Z" fill="#b8cbe6"/>
        <path id="Path_10953" data-name="Path 10953" d="M575.856-164.88a3.409,3.409,0,0,0-2.078-3.139.32.32,0,0,0,.1-.236.322.322,0,0,0-.323-.323h-2.337a.323.323,0,0,0-.323.323.327.327,0,0,0,.138.264,3.523,3.523,0,0,0-2.11,3.228v10.183h6.933Z" fill="#b8cbe6"/>
        <path id="Path_10954" data-name="Path 10954" d="M566.4-164.88a3.409,3.409,0,0,0-2.078-3.139.321.321,0,0,0,.1-.236.322.322,0,0,0-.323-.323h-2.337a.323.323,0,0,0-.323.323.327.327,0,0,0,.138.264,3.523,3.523,0,0,0-2.11,3.228v10.183H566.4Z" fill="#b8cbe6"/>
        <path id="Path_10955" data-name="Path 10955" d="M556.77-164.88a3.407,3.407,0,0,0-2.078-3.139.32.32,0,0,0,.1-.236.323.323,0,0,0-.322-.323h-2.335a.323.323,0,0,0-.323.323.327.327,0,0,0,.138.264,3.523,3.523,0,0,0-2.115,3.225v10.186h6.933Z" fill="#b8cbe6"/>
        <path id="Path_10956" data-name="Path 10956" d="M547.172-164.88v10.3h-6.229v-12.29a3.355,3.355,0,0,1,1.4-1.12.345.345,0,0,1-.14-.269.33.33,0,0,1,.33-.32h2.34a.321.321,0,0,1,.32.32.329.329,0,0,1-.1.24A3.412,3.412,0,0,1,547.172-164.88Z" fill="#b8cbe6"/>
      </g>
      <g id="Group_7018" data-name="Group 7018">
        <rect id="Rectangle_2063" data-name="Rectangle 2063" width="21.522" height="7.394" rx="0.985" transform="translate(843.164 -133.174) rotate(-0.681)" fill="#d7e5fb"/>
        <path id="Path_10957" data-name="Path 10957" d="M844.092-126.655l-.054-5.678,19.806-.223.055,5.666Z" fill="#d7e5fb"/>
        <path id="Rectangle_2064" data-name="Rectangle 2064" d="M851.4-125.932l5.216-.062h0l.011.909a.64.64,0,0,1-.632.647l-3.936.047a.64.64,0,0,1-.648-.631l-.011-.91Z" fill="#d7e5fb"/>
        <rect id="Rectangle_2065" data-name="Rectangle 2065" width="1.634" height="14.884" transform="matrix(1, -0.012, 0.012, 1, 853.213, -124.407)" fill="#d7e5fb"/>
        <rect id="Rectangle_2066" data-name="Rectangle 2066" width="1.634" height="1.077" transform="matrix(1, -0.012, 0.012, 1, 853.213, -124.407)" fill="#d7e5fb"/>
        <path id="Rectangle_2067" data-name="Rectangle 2067" d="M843.4-109.422l38.473-.457a1.557,1.557,0,0,1,1.575,1.539l0,.2h0l-41.587.5h0l0-.2a1.558,1.558,0,0,1,1.539-1.577Z" fill="#d7e5fb"/>
        <path id="Rectangle_2068" data-name="Rectangle 2068" d="M841.681-107.477l45.245-.543a.7.7,0,0,1,.709.692h0l.037,3.106a.7.7,0,0,1-.692.708h0l-45.245.543a.7.7,0,0,1-.708-.691h0l-.037-3.106a.7.7,0,0,1,.691-.709Z" fill="#d7e5fb"/>
        <line id="Line_746" data-name="Line 746" y1="0.494" x2="41.587" transform="translate(841.858 -108.14)" fill="none"/>
      </g>
      <path id="Path_10958" data-name="Path 10958" d="M874.284-171.842v-15.236h-2.1v15.24H786.809v-15.24h-2.1v15.24H774.591v28.915H885.528v-28.915Z" fill="#d7e5fb"/>
      <rect id="Rectangle_2069" data-name="Rectangle 2069" width="143.412" height="63.382" transform="translate(760 -97.697)" fill="#d7e5fb"/>
      <path id="Rectangle_2070" data-name="Rectangle 2070" d="M755.53-103.564H909.411a5.868,5.868,0,0,1-5.868,5.868H761.4a5.869,5.869,0,0,1-5.868-5.868Z" fill="#b8cbe6"/>
      <g id="Group_7024" data-name="Group 7024">
        <path id="Path_10959" data-name="Path 10959" d="M772.372-112.38a33.231,33.231,0,0,1-7.129-4.943l-3.755-5.946c-.395-1.1-1.051-.879-1.051-.879a1.156,1.156,0,0,0-.546,1.412l.951,2.271a26.451,26.451,0,0,0,1.886,3.772,21.476,21.476,0,0,0,6.234,6.809Z" fill="#d4b698"/>
        <path id="Path_10960" data-name="Path 10960" d="M771.759-115.186a16.568,16.568,0,0,1-3.416-5.089c-1.11-2.649-1.933-1-1.684-.133s1.054,3.254,1.05,3.672-.046,1.341-2.2,1.147c-1.19-.108,6.957,3.277,6.957,3.277Z" fill="#d4b698"/>
        <rect id="Rectangle_2071" data-name="Rectangle 2071" width="1.921" height="15.569" transform="matrix(0.847, -0.532, 0.532, 0.847, 758.457, -128.154)"/>
        <path id="Path_10961" data-name="Path 10961" d="M799.658-115.857,789.182-99.933,773.258-114.6l-6.286,6.286,21.245,23.406a3.755,3.755,0,0,0,5.3.256c.09-.081.176-.167.257-.256l17.615-19.425Z"/>
        <g id="Group_7022" data-name="Group 7022">
          <path id="Path_10962" data-name="Path 10962" d="M798.519-135.6l2.942,11.348,10.492-3.563-4.5-16.9Z" fill="#d4b698"/>
          <path id="Path_10963" data-name="Path 10963" d="M800.521-127.985c-.1-.18,2.143-7.184,2.143-7.184l-3.348,2.265Z" fill="#b79479"/>
          <path id="Path_10964" data-name="Path 10964" d="M791.9-156.348s-5.055,1.739-4.242,8.327c0,0,.642,4.768,1.623,11.623a5.728,5.728,0,0,0,6.419,4.941,5.683,5.683,0,0,0,1.253-.309,17.106,17.106,0,0,0,6.192-4.143l2.539-3.322c5.7-9.032-2.84-20.52-13.045-17.362C792.393-156.519,792.146-156.438,791.9-156.348Z" fill="#d4b698"/>
          <g id="Group_7020" data-name="Group 7020">
            <g id="Group_7019" data-name="Group 7019">
              <path id="Path_10966" data-name="Path 10966" d="M790.663-148.127s-1.775.009-1.777.811c0,0,.013.541,1.561.5s1.948-.206,2.079-.728S791.495-148.2,790.663-148.127Z"/>
            </g>
          </g>
          <path id="Path_10967" data-name="Path 10967" d="M812.156-153.814c-.925-2.638-4.076-5.234-6.774-5.962a15.148,15.148,0,0,0-17.115,6.44c17.013-7.411,12.519,7.554,12.519,7.554a19.4,19.4,0,0,1,2.813,3.389c2.068,4.758,5.21,4.214,5.21,4.214C811.556-145.741,813.652-149.546,812.156-153.814Z" fill="#bd5950"/>
          <path id="Path_10968" data-name="Path 10968" d="M790.957-142.927a.749.749,0,0,1-.848.634h0a.749.749,0,0,1-.635-.848v0a.75.75,0,0,1,.85-.635h0a.75.75,0,0,1,.636.849Z"/>
          <line id="Line_747" data-name="Line 747" y1="0.734" x2="1.774" transform="translate(790.002 -138.583)" fill="none" stroke="#000" stroke-linecap="round" stroke-linejoin="round" stroke-width="0.519"/>
          <g id="Group_7021" data-name="Group 7021">
            <path id="Path_10969" data-name="Path 10969" d="M806.92-145.035a3.521,3.521,0,0,1-2.551,4.277h0a3.523,3.523,0,0,1-4.279-2.552,3.523,3.523,0,0,1,2.553-4.279h0a3.523,3.523,0,0,1,4.279,2.552Z" fill="#d4b698"/>
            <path id="Path_10970" data-name="Path 10970" d="M802.165-143.106s-.626-2.476,1.841-2.685" fill="none" stroke="#000" stroke-linecap="round" stroke-linejoin="round" stroke-width="0.519"/>
          </g>
        </g>
        <path id="Path_10971" data-name="Path 10971" d="M827.664-44.893a86.657,86.657,0,0,1-.977,10.581H794.218c.638-2.393,1.249-4.953,1.74-7.648A175.237,175.237,0,0,0,798.192-64.1h27.029S827.664-49.738,827.664-44.893Z" fill="#313131"/>
        <path id="Path_10972" data-name="Path 10972" d="M825.082-60.335c-8.616.565-21.482.637-26.975.637a2.683,2.683,0,0,1-2.683-2.637c-.008-.578-.02-1.236-.033-1.969-.151-9.53-.507-31.241-.721-39.693-.277-10.976,5.351-22.655,5.351-22.655l10.816-4.969A36.814,36.814,0,0,1,824.591-105.8c1.257,15.028,2.338,32,2.845,40.234.055.91.1,1.71.143,2.393A2.68,2.68,0,0,1,825.082-60.335Z" fill="#313131"/>
        <path id="Path_10973" data-name="Path 10973" d="M782.464-94.726l-21.276,7.215-.2,4.9,30.423-3.342Z" fill="#d4b698"/>
        <path id="Path_10974" data-name="Path 10974" d="M758.233-88.989a17.636,17.636,0,0,1-10.342-1.041c-5.792-2.3-11.232,2.59-11.232,2.59l7.034,4.007a11.146,11.146,0,0,1,8.23-1.809,13.469,13.469,0,0,0,8.364-1.163Z" fill="#559550"/>
        <path id="Path_10975" data-name="Path 10975" d="M759.155-88.736a17.487,17.487,0,0,1-10.02-2.608C743.823-94.5,737.6-90.5,737.6-90.5l6.238,5.027A11.274,11.274,0,0,1,752.275-86a13.556,13.556,0,0,0,8.455.131Z" fill="#68b358"/>
        <path id="Path_10976" data-name="Path 10976" d="M762.872-85.89a33.023,33.023,0,0,1-10.777.729l-4.348-3.61c-.944-.686-1.363-.136-1.363-.136a1.153,1.153,0,0,0,.343,1.474l3.263,3.64a5.076,5.076,0,0,0,1.572.976c1.386.539,5.3.808,9.69.751Z" fill="#d4b698"/>
        <path id="Path_10977" data-name="Path 10977" d="M760.785-87.866a16.563,16.563,0,0,1-5.687-2.288c-2.408-1.565-2.163.258-1.467.838s2.7,2.1,2.934,2.445.716,1.135-1.17,2.183c-1.045.58,7.6-1.2,7.6-1.2Z" fill="#d4b698"/>
        <g id="Group_7023" data-name="Group 7023">
          <path id="Path_10978" data-name="Path 10978" d="M801.724-122.462,786.038-97l-25.562,8.59.835,7.123,26.07-3.259a11.857,11.857,0,0,0,7-3.467l21.661-22.112Z" fill="#313131"/>
        </g>
        <path id="Path_10979" data-name="Path 10979" d="M817.05-148.263c0,9.027-9.777,15.782-16.344,16.343a4.143,4.143,0,0,1-1.207-.058c-4.919-1.094.734-13.175-1.446-18.942-.683-1.8-13.69,4.693-13.69,2.657,0-.457.017-.909.054-1.354a16.345,16.345,0,0,1,16.292-14.989A16.342,16.342,0,0,1,817.05-148.263Z" fill="#e1cc73"/>
        <path id="Path_10980" data-name="Path 10980" d="M811.323-131.222l-.978-2.933-8.242,3.492s-2.208.759-2.082,4.012S811.323-131.222,811.323-131.222Z" fill="#313131"/>
        <path id="Path_10981" data-name="Path 10981" d="M798.749-137.782c-.7,2.372-.277,4.747.7,5.724a.185.185,0,0,1,.05.084c-4.919-1.094.734-13.175-1.446-18.942-.683-1.8-13.69,4.693-13.69,2.657,0-.457.017-.909.054-1.354a33.552,33.552,0,0,0,6.3-1.686,47.133,47.133,0,0,1,8.031-2.132,8.256,8.256,0,0,1,1.468,4.541A36.17,36.17,0,0,1,798.749-137.782Z" fill="#313131"/>
        <path id="Path_10982" data-name="Path 10982" d="M782.687-153.852l17.88-1.955a2.691,2.691,0,0,1,1.955,2.514c.14,2.1-2.654,4.191-3.911,5.168s-10.058,2.655-13.41,5.029-3.353,3.073-5.727,3.911C779.473-139.182,779.054-148.264,782.687-153.852Z" fill="#c1dedf" opacity="0.8" style="isolation: isolate"/>
        <circle id="Ellipse_573" data-name="Ellipse 573" cx="1.397" cy="1.397" r="1.397" transform="translate(797.772 -154.271)"/>
        <path id="Path_10983" data-name="Path 10983" d="M822.235-116.224l-5.744,1.764-6.705,1.676s-13.13,20.395-17.6,23.467-31.2,6.707-31.2,6.707l-.511-5.8L786.037-97l9.5-15.5s3.633-13.41,8.1-16.2,7.683-2.515,7.683-2.515A37.587,37.587,0,0,1,822.235-116.224Z" fill="#e1cc73"/>
        <path id="Path_10984" data-name="Path 10984" d="M825.083-60.335c-8.616.565-21.482.637-26.975.637a2.683,2.683,0,0,1-2.683-2.637c-.008-.578-.02-1.236-.033-1.969l32.045-1.262c.055.91.1,1.71.143,2.393A2.68,2.68,0,0,1,825.083-60.335Z" fill="url(#linear-gradient)"/>
        <line id="Line_748" data-name="Line 748" y1="13.689" x2="13.27" transform="translate(794.839 -102.167)" fill="none" stroke="#000" stroke-miterlimit="10" stroke-width="0.5"/>
      </g>
      <g id="Group_7040" data-name="Group 7040">
        <g id="Group_7038" data-name="Group 7038">
          <g id="Group_7025" data-name="Group 7025">
            <path id="Path_10985" data-name="Path 10985" d="M679.131-34.1H632.686l.042-.473c4.463-46.374,11.806-47.669,11.806-47.669l6.311-35.39,14.666.629,3.257,32.841C674.89-70.16,677.8-48.6,679.131-34.1Z" fill="#cd8f55"/>
          </g>
          <g id="Group_7028" data-name="Group 7028">
            <path id="Path_10986" data-name="Path 10986" d="M641.034-150.737s.462,7.235-1.7,11.076-3.8,5.423-4.374,9.6c0,0,18.1,5.4,36.22-.609l-7.12-20.062Z" fill="#24353a"/>
            <path id="Path_10987" data-name="Path 10987" d="M664.03-159.021s-16.956-4.593-21.751,3.909c-3.48,6.168.631,17.337,8.576,20.485,7.568,3,5.42-21.662,5.42-21.662Z" fill="#24353a"/>
            <path id="Path_10988" data-name="Path 10988" d="M662.415-143.682a3.7,3.7,0,0,0,3.374,4h0a3.7,3.7,0,0,0,4-3.374v0a3.7,3.7,0,0,0-3.373-4h0a3.7,3.7,0,0,0-4,3.373Z" fill="#cea587"/>
            <path id="Path_10989" data-name="Path 10989" d="M660.753-133.349l-.63,8.039c-.215,2.823-2.07,4.2-4.846,3.966h0c-2.371-.2-4.494-1.611-4.59-3.988l1.6-12.6Z" fill="#dfba9b"/>
            <path id="Path_10990" data-name="Path 10990" d="M660.31-127.542l-9.279-8.449,9.8,1.819Z" fill="#cea587"/>
            <path id="Path_10991" data-name="Path 10991" d="M658.285-132.081h0c4.753.083,8.734-3.6,8.932-7.482l.414-9.156a9.025,9.025,0,0,0-8.255-9.462h0c-4.966-.419-10.2,3.2-10.622,8.162l-.252,7.367C648.306-136.949,652.6-132.563,658.285-132.081Z" fill="#dfba9b"/>
            <path id="Path_10992" data-name="Path 10992" d="M654-154.237c1.72,4.147-3.5,10.5-3.5,10.5l-6.29-7.56S652.783-157.171,654-154.237Z" fill="#24353a"/>
            <g id="Group_7026" data-name="Group 7026">
              <path id="Path_10993" data-name="Path 10993" d="M644.08-143.762a3.7,3.7,0,0,0,3.374,4h0a3.7,3.7,0,0,0,4-3.374v0a3.7,3.7,0,0,0-3.373-4h0a3.7,3.7,0,0,0-4,3.373Z" fill="#dfba9b"/>
              <path id="Path_10994" data-name="Path 10994" d="M648.963-142.246s.225-2.673-2.366-2.468" fill="none" stroke="#25282a" stroke-linecap="round" stroke-linejoin="round" stroke-width="0.539"/>
            </g>
            <g id="Group_7027" data-name="Group 7027">
              <path id="Path_10995" data-name="Path 10995" d="M662.351-142.019l.167,1.649-1.24.05" fill="none" stroke="#25282a" stroke-linecap="round" stroke-linejoin="round" stroke-width="0.539"/>
              <path id="Path_10996" data-name="Path 10996" d="M656.688-148.183s2.054-.179,2.077.684c0,0,0,.585-1.793.7s-2.258-.014-2.423-.563S655.723-148.176,656.688-148.183Z" fill="#25282a"/>
              <path id="Path_10997" data-name="Path 10997" d="M665.275-147.957s-1.7-.177-1.832.634c0,0-.079.549,1.4.67s1.968-.076,2.107-.519C667.113-147.675,666.081-147.946,665.275-147.957Z" fill="#25282a"/>
              <path id="Path_10998" data-name="Path 10998" d="M664.065-143.832a.881.881,0,0,0,.836.917.875.875,0,0,0,.888-.862h0a.878.878,0,0,0-.836-.917.874.874,0,0,0-.888.859Z" fill="#25282a"/>
              <path id="Path_10999" data-name="Path 10999" d="M656.511-144.074a.878.878,0,0,0,.836.917.875.875,0,0,0,.888-.862h0a.879.879,0,0,0-.836-.917.874.874,0,0,0-.888.859Z" fill="#25282a"/>
              <path id="Path_11000" data-name="Path 11000" d="M663.442-138.613h-6.251a3.981,3.981,0,0,0,3.563,1.943A2.544,2.544,0,0,0,663.442-138.613Z" fill="#fff"/>
            </g>
            <path id="Path_11001" data-name="Path 11001" d="M652.951-154.238s3.739,6.388,15.73,4.147c0,0,2.915-6.542-4.65-8.93s-16.264,1.646-16.264,1.646V-152Z" fill="#24353a"/>
          </g>
          <g id="Group_7029" data-name="Group 7029">
            <path id="Path_11002" data-name="Path 11002" d="M663.048-124.11s10.722,2.543,12.614,16.721l-6.878,5.886Z" fill="#6a83bc"/>
          </g>
          <g id="Group_7030" data-name="Group 7030">
            <path id="Path_11003" data-name="Path 11003" d="M646.824-124.514l7.841-1.375,5.791,1.045s5.885,5.805,7.137,8.01c.742,1.306,1.257,7.124-7.962,3.912-6.769-2.36-12.588-2.363-13.777-5.469S646.824-124.514,646.824-124.514Z" fill="#dfba9b"/>
          </g>
          <g id="Group_7031" data-name="Group 7031">
            <path id="Path_11004" data-name="Path 11004" d="M660.461-124.844s6.775,7.955,5.321,20.722,6.425,29.963,6.425,29.963l-1.534-34.526S670.6-123.385,660.461-124.844Z" fill="#6a83bc"/>
            <path id="Path_11005" data-name="Path 11005" d="M669.939-114.186s2.393,5.876.734,15.754" fill="none" stroke="#1a1d27" stroke-miterlimit="10" stroke-width="0.5"/>
          </g>
          <g id="Group_7032" data-name="Group 7032">
            <rect id="Rectangle_2072" data-name="Rectangle 2072" width="30.347" height="32.752" transform="translate(663.346 -110.958)" fill="#a67846"/>
            <rect id="Rectangle_2073" data-name="Rectangle 2073" width="19.983" height="32.752" transform="translate(693.521 -110.958)" fill="#e8c08a"/>
            <rect id="Rectangle_2074" data-name="Rectangle 2074" width="5.325" height="9.763" transform="translate(701.136 -110.987)" fill="#cea26b"/>
            <rect id="Rectangle_2075" data-name="Rectangle 2075" width="7.558" height="5.497" transform="translate(683.902 -108.611)" fill="#976d40"/>
            <rect id="Rectangle_2076" data-name="Rectangle 2076" width="7.558" height="0.888" transform="translate(683.902 -102.255)" fill="#ab7c55"/>
          </g>
          <g id="Group_7033" data-name="Group 7033">
            <path id="Path_11006" data-name="Path 11006" d="M650.417-125.774s-8.94,1.257-10.337,7.473c-1.3,5.807-2.481,17.3,3.632,28.147l-3.073,10.337s13.607,9.438,20.115,5.867c2.269-1.245,2.8-15.772,2.794-16.763C663.268-121.305,650.417-125.774,650.417-125.774Z" fill="#6a83bc"/>
          </g>
          <g id="Group_7037" data-name="Group 7037">
            <g id="Group_7034" data-name="Group 7034">
              <path id="Path_11007" data-name="Path 11007" d="M671.713-87.648c-6.357-1.944-11.078-5.843-16.749-9.311-5.088-3.111-11.126-5.9-14.753-10.627a3.123,3.123,0,0,1-.559-2.848v-.016a18.628,18.628,0,0,1,3.4-.55,82.935,82.935,0,0,1,14.278.229q9,8.028,18.417,15.582c5.329.569,10.611,1.039,15.852,1.72a36.383,36.383,0,0,0-3.061,7.962A58.811,58.811,0,0,1,671.713-87.648Z" fill="#6a83bc"/>
            </g>
            <g id="Group_7036" data-name="Group 7036">
              <g id="Group_7035" data-name="Group 7035">
                <path id="Path_11008" data-name="Path 11008" d="M691.431-93.174c5.151,1.065,7.177,1.746,12.415,2.881a10.509,10.509,0,0,1-.558,4.052c-6.216.279-8.8.629-14.739.736A33.566,33.566,0,0,1,691.431-93.174Z" fill="#d5a579"/>
              </g>
            </g>
          </g>
          <line id="Line_749" data-name="Line 749" x1="15.191" y1="10.791" transform="translate(647.902 -102.341)" fill="none" stroke="#1a1d27" stroke-miterlimit="10" stroke-width="0.5"/>
          <path id="Path_11009" data-name="Path 11009" d="M661.94-106.742s-5.866-5.342-6.18-5.971a46.877,46.877,0,0,0-5.029-6.076" fill="none" stroke="#1a1d27" stroke-miterlimit="10" stroke-width="0.5"/>
        </g>
        <g id="Group_7039" data-name="Group 7039">
          <path id="Path_11010" data-name="Path 11010" d="M710.463-86.354s3.448-.352,3.776-.525,2.8-1.627,3.064-1.684.948.146.7.7A14.549,14.549,0,0,1,714.189-85a16.089,16.089,0,0,1-6.226.153c-.718-.348,1.362-1.462,1.362-1.462Z" fill="#c59166"/>
          <path id="Path_11011" data-name="Path 11011" d="M708.316-86.979q1.782-.3,3.526-.771c.3-.187,2.526-1.738,2.769-1.811s.9.069.716.614a13.735,13.735,0,0,1-3.391,2.976,15.233,15.233,0,0,1-5.866.6c-.7-.277,1.18-1.479,1.18-1.479Z" fill="#c59166"/>
          <path id="Path_11012" data-name="Path 11012" d="M702.746-90.189a25.936,25.936,0,0,1,4.026-1.665,17.128,17.128,0,0,1,4.5.157,23.223,23.223,0,0,0,2.961-.079.829.829,0,0,1-.2,1.157.839.839,0,0,1-.354.143c-1.145.356-3.593.435-4.579.632s-.79,1.579.039,2.132a12.285,12.285,0,0,0,2.606,1.461c.474.079,2.053.592,2.053.592a8.929,8.929,0,0,1-7.54,1.027c-1.476-.433-3.612-1.013-4.037-1.893A3.941,3.941,0,0,1,702.746-90.189Z" fill="#d5a579"/>
          <path id="Path_11013" data-name="Path 11013" d="M711.147-86.307s3.444.395,3.8.3,3.086-.987,3.354-.987.895.345.537.839a14.516,14.516,0,0,1-4.338,1.976c-1.073.247-7.154.049-7.78-.445s3.309-1.876,3.309-1.876Z" fill="#d5a579"/>
        </g>
      </g>
    </g>
    <path id="Path_5" data-name="Path 5" d="M667.435-143.54s-.842,3.073-14.227.383c.126,1.461,2.688,6.278-1.924,8.266.812.77,3.255,3.655,10.106,2.127,2.4-.582,4.99-1.383,6.046-5.767A18.467,18.467,0,0,0,667.435-143.54Z" fill="#233d83"/>
    <line id="Line_724" data-name="Line 724" x2="2.007" y2="1.626" transform="translate(651.242 -144.729)" fill="#233d83" stroke="#233d83" stroke-linecap="round" stroke-miterlimit="10" stroke-width="0.25"/>
    <line id="Line_725" data-name="Line 725" x2="2.511" y2="4.996" transform="translate(648.773 -139.887)" fill="#233d83" stroke="#233d83" stroke-linecap="round" stroke-miterlimit="10" stroke-width="0.25"/>
    <path id="Path_6" data-name="Path 6" d="M798.267-143.29s-7.361,3.283-9.776,1.335c-2.55,1.806-.633,14.757,10.028,9.466C797.07-134.322,797.288-136.845,798.267-143.29Z" fill="#233d83"/>
  </g>
</svg>
