<svg xmlns="http://www.w3.org/2000/svg" xmlns:xlink="http://www.w3.org/1999/xlink" width="375" height="153" viewBox="0 0 375 153">
  <defs>
    <clipPath id="clip-path">
      <rect id="Rectangle_3" data-name="Rectangle 3" width="65" height="59.976" transform="translate(709.766 92.971)" fill="none"/>
    </clipPath>
  </defs>
  <g id="Group_6843" data-name="Group 6843" transform="translate(-540.965 -0.114)">
    <g id="Group_7078" data-name="Group 7078">
      <rect id="Rectangle_2077" data-name="Rectangle 2077" width="375" height="152.939" transform="translate(540.965 0.114)" fill="#ebf2ff"/>
      <g id="Group_7052" data-name="Group 7052">
        <g id="Group_7051" data-name="Group 7051">
          <g id="Group_7049" data-name="Group 7049">
            <g id="Group_7042" data-name="Group 7042">
              <path id="Path_11014" data-name="Path 11014" d="M878.953,153.111h-26.27V23.013h26.35l-.06,130.1" fill="#b8cbe6"/>
            </g>
            <g id="Group_7043" data-name="Group 7043">
              <path id="Path_11015" data-name="Path 11015" d="M855.918,100.9c.051,1.257-.432,2.3-1.079,2.325s-1.214-.973-1.265-2.23.432-2.3,1.079-2.325S855.866,99.646,855.918,100.9Z" fill="#fff"/>
            </g>
            <g id="Group_7044" data-name="Group 7044">
              <path id="Path_11016" data-name="Path 11016" d="M854.705,99.965l5.172.693a.575.575,0,0,1,.5.546h0a.573.573,0,0,1-.551.6.59.59,0,0,1-.119-.007l-4.96-.842Z" fill="#fff"/>
            </g>
            <g id="Group_7048" data-name="Group 7048">
              <g id="Group_7045" data-name="Group 7045">
                <path id="Path_11017" data-name="Path 11017" d="M878.953,15.716V153.108h-9.488V23.008h-50.61v130.1h-8.62V15.716Z" fill="#d7e5fb"/>
              </g>
              <g id="Group_7046" data-name="Group 7046">
                <rect id="Rectangle_2078" data-name="Rectangle 2078" width="4.31" height="130.098" transform="translate(814.543 23.013)" fill="#b8cbe6"/>
              </g>
              <g id="Group_7047" data-name="Group 7047">
                <path id="Path_11018" data-name="Path 11018" d="M878.953,153.108h-4.23V15.716h4.31V153.108" fill="#b8cbe6"/>
              </g>
            </g>
          </g>
          <g id="Group_7050" data-name="Group 7050">
            <rect id="Rectangle_2079" data-name="Rectangle 2079" width="14.161" height="3.161" transform="translate(836.34 5.47)" fill="#d7e5fb"/>
          </g>
        </g>
      </g>
      <g id="Group_7054" data-name="Group 7054">
        <rect id="Rectangle_2080" data-name="Rectangle 2080" width="55.721" height="113.901" transform="translate(603.218 23.162)" fill="#d7e5fb"/>
        <path id="Path_11019" data-name="Path 11019" d="M631.079,23.162s-11.425,51.669-27.861,55.2c0,0,6.641,36.242,7.243,58.7h-7.243V23.162Z" fill="#9eb7d5"/>
        <path id="Path_11020" data-name="Path 11020" d="M631.265,23.162s11.424,51.669,27.86,55.2c0,0-6.64,36.242-7.242,58.7h7.242V23.162Z" fill="#9eb7d5"/>
        <rect id="Rectangle_2081" data-name="Rectangle 2081" width="2.031" height="114.117" transform="translate(630.064 22.946)" fill="#b8cbe6"/>
        <rect id="Rectangle_2082" data-name="Rectangle 2082" width="0.5" height="114.117" transform="translate(616.105 22.946)" fill="#b8cbe6"/>
        <rect id="Rectangle_2083" data-name="Rectangle 2083" width="0.5" height="114.117" transform="translate(646.185 22.946)" fill="#b8cbe6"/>
        <path id="Path_11021" data-name="Path 11021" d="M658.94,51.242V51.7l-55.721.229v-.457Z" fill="#b8cbe6"/>
        <path id="Path_11022" data-name="Path 11022" d="M658.94,107.91v.448l-55.721.224v-.448Z" fill="#b8cbe6"/>
        <rect id="Rectangle_2084" data-name="Rectangle 2084" width="55.721" height="1.899" transform="translate(603.218 78.97)" fill="#b8cbe6"/>
        <g id="Group_7053" data-name="Group 7053">
          <path id="Path_11023" data-name="Path 11023" d="M659.765,137.889H602.392V22.336h57.373Zm-55.722-1.651h54.069V23.988H604.044Z" fill="#b8cbe6"/>
        </g>
      </g>
      <rect id="Rectangle_2085" data-name="Rectangle 2085" width="20.392" height="5.634" transform="translate(746.237 41.371)" fill="#b8cbe6"/>
      <rect id="Rectangle_2086" data-name="Rectangle 2086" width="20.392" height="5.634" transform="translate(736.903 47.005)" fill="#d7e5fb"/>
      <g id="Group_7055" data-name="Group 7055">
        <rect id="Rectangle_2087" data-name="Rectangle 2087" width="20.392" height="5.634" transform="translate(565.57 103.851)" fill="#b8cbe6"/>
        <rect id="Rectangle_2088" data-name="Rectangle 2088" width="20.392" height="5.634" transform="translate(556.98 110.389)" fill="#d7e5fb"/>
      </g>
      <g id="Group_7061" data-name="Group 7061">
        <g id="Group_6841" data-name="Group 6841">
          <g id="Group_6840" data-name="Group 6840" clip-path="url(#clip-path)">
            <g id="Group_7060" data-name="Group 7060">
              <g id="Group_7059" data-name="Group 7059">
                <path id="Path_11024" data-name="Path 11024" d="M731.274,145.348A19.782,19.782,0,0,0,719,143.857c-2.226.368-4.547,1.034-6.062,2.706s-1.8,4.613-.062,6.049a5.817,5.817,0,0,0,3.822.97c3.244-.038,6.843-.61,9.435,1.342,1.478,1.113,2.462,2.963,4.23,3.511a4.181,4.181,0,0,0,4.6-2.045,7.143,7.143,0,0,0,.521-5.269A8.047,8.047,0,0,0,731.274,145.348Z" fill="#d7e5fb"/>
                <path id="Path_11025" data-name="Path 11025" d="M739.824,128.847c-2.282,3.258-6.717,2.18-8.774.191s-2.926-4.872-3.718-7.621c-1.807-6.28-3.63-12.87-2.286-19.265a10.7,10.7,0,0,1,2.461-5.238,5.591,5.591,0,0,1,5.3-1.762c2.237.591,3.627,2.779,4.632,4.863a45.923,45.923,0,0,1,4.54,19.708c.011,3.174-.364,6.5-2.156,9.124" fill="#d7e5fb"/>
                <path id="Path_11026" data-name="Path 11026" d="M746.092,133.522c-2.478-2.94-2.948-7.228-1.846-10.911a21.023,21.023,0,0,1,6.465-9.373,34.787,34.787,0,0,1,11.577-6.828,12.344,12.344,0,0,1,5.206-.885,5.467,5.467,0,0,1,4.371,2.647c1.219,2.323.051,5.14-1.213,7.438a88.173,88.173,0,0,1-7.6,11.574c-2.279,2.937-4.889,5.834-8.363,7.161s-7.081,1.171-8.922-1.236" fill="#d7e5fb"/>
                <g id="Group_7056" data-name="Group 7056">
                  <path id="Path_11027" data-name="Path 11027" d="M739.979,178a7.043,7.043,0,0,1-.206-1.48l-.394-4.04a58.087,58.087,0,0,0-.909-5.927,45.77,45.77,0,0,0-2.155-7,25.766,25.766,0,0,0-3.574-6.329,13.328,13.328,0,0,0-4.517-3.754,12.656,12.656,0,0,0-3.8-1.186,7.113,7.113,0,0,1-1.474-.213,6.838,6.838,0,0,1,1.5-.024,11.553,11.553,0,0,1,3.967,1.033,13.329,13.329,0,0,1,4.766,3.786,25.189,25.189,0,0,1,3.7,6.457,42.778,42.778,0,0,1,2.14,7.109,50.264,50.264,0,0,1,.788,6c.128,1.715.177,3.1.2,4.065A6.865,6.865,0,0,1,739.979,178Z" fill="#b8cbe6"/>
                </g>
                <g id="Group_7057" data-name="Group 7057">
                  <path id="Path_11028" data-name="Path 11028" d="M739.7,174.889a2.937,2.937,0,0,1-.04-.688c0-.515,0-1.166.005-1.964,0-1.705,0-4.172-.088-7.219-.15-6.093-.675-14.505-1.689-23.751s-2.375-17.567-3.608-23.536c-.292-1.5-.585-2.843-.862-4.021s-.489-2.2-.706-3.025l-.46-1.91a2.949,2.949,0,0,1-.12-.677,2.831,2.831,0,0,1,.239.644l.571,1.882c.253.817.512,1.829.808,3.006s.633,2.517.952,4.01A222.959,222.959,0,0,1,738.5,141.2c1.016,9.265,1.473,17.7,1.514,23.811.036,3.054-.029,5.527-.107,7.233-.049.8-.088,1.447-.12,1.963A2.955,2.955,0,0,1,739.7,174.889Z" fill="#b8cbe6"/>
                </g>
                <g id="Group_7058" data-name="Group 7058">
                  <path id="Path_11029" data-name="Path 11029" d="M739.666,158.618a13.137,13.137,0,0,1,.014-2.052c.076-1.318.257-3.225.629-5.561a73.027,73.027,0,0,1,1.809-8.1,71.607,71.607,0,0,1,3.389-9.585,51.049,51.049,0,0,1,9.952-15.491,25.348,25.348,0,0,1,2.341-2.176c.36-.3.677-.606,1-.845s.627-.434.908-.627a12.868,12.868,0,0,1,1.729-1.106,60.6,60.6,0,0,0-5.666,5.052,53.76,53.76,0,0,0-9.7,15.435,76.32,76.32,0,0,0-3.408,9.5,82.083,82.083,0,0,0-1.925,8.021c-.424,2.311-.669,4.2-.817,5.506A13.327,13.327,0,0,1,739.666,158.618Z" fill="#b8cbe6"/>
                </g>
              </g>
            </g>
          </g>
        </g>
      </g>
      <g id="Group_7069" data-name="Group 7069">
        <path id="Path_11030" data-name="Path 11030" d="M663.183,70.814l14.5,15.244-1.5,7.5-16.75-14.994Z"/>
        <g id="Group_7062" data-name="Group 7062">
          <rect id="Rectangle_2090" data-name="Rectangle 2090" width="30.35" height="32.742" transform="translate(674.673 70.564)" fill="#a67846"/>
          <rect id="Rectangle_2091" data-name="Rectangle 2091" width="19.985" height="32.742" transform="translate(704.852 70.564)" fill="#e8c08a"/>
          <rect id="Rectangle_2092" data-name="Rectangle 2092" width="5.326" height="9.76" transform="translate(712.468 70.535)" fill="#cea26b"/>
          <rect id="Rectangle_2093" data-name="Rectangle 2093" width="7.559" height="5.495" transform="translate(695.231 72.911)" fill="#976d40"/>
          <rect id="Rectangle_2094" data-name="Rectangle 2094" width="7.559" height="0.887" transform="translate(695.231 79.264)" fill="#ab7c55"/>
        </g>
        <g id="Group_7068" data-name="Group 7068">
          <g id="Group_7066" data-name="Group 7066">
            <path id="Path_11031" data-name="Path 11031" d="M661.319,51.8l-2.942,11.345L647.884,59.58l4.5-16.89Z" fill="#d4b698"/>
            <path id="Path_11032" data-name="Path 11032" d="M659.317,59.4c.1-.181-2.142-7.182-2.142-7.182l3.348,2.263Z" fill="#b79479"/>
            <path id="Path_11033" data-name="Path 11033" d="M667.943,31.051s5.056,1.738,4.242,8.325c0,0-.642,4.766-1.622,11.619a5.734,5.734,0,0,1-7.674,4.631,17.121,17.121,0,0,1-6.192-4.142l-2.539-3.321C648.458,39.134,657,27.65,667.2,30.806,667.447,30.882,667.694,30.963,667.943,31.051Z" fill="#d4b698"/>
            <g id="Group_7064" data-name="Group 7064">
              <g id="Group_7063" data-name="Group 7063">
                <path id="Path_11035" data-name="Path 11035" d="M669.176,39.27s1.776.009,1.777.811c0,0-.012.541-1.561.5s-1.948-.2-2.079-.728S668.345,39.2,669.176,39.27Z"/>
              </g>
            </g>
            <path id="Path_11036" data-name="Path 11036" d="M647.681,33.583c.925-2.637,4.076-5.233,6.775-5.96a15.15,15.15,0,0,1,17.116,6.437c-17.015-7.409-12.519,7.552-12.519,7.552A19.4,19.4,0,0,0,656.24,45c-2.068,4.756-5.212,4.212-5.212,4.212C648.281,41.655,646.184,37.85,647.681,33.583Z" fill="#bd5950"/>
            <path id="Path_11037" data-name="Path 11037" d="M668.882,44.468a.751.751,0,1,0,.636-.85h0A.751.751,0,0,0,668.882,44.468Z"/>
            <line id="Line_750" data-name="Line 750" x1="1.774" y1="0.734" transform="translate(668.063 48.811)" fill="none" stroke="#000" stroke-linecap="round" stroke-linejoin="round" stroke-width="0.519"/>
            <g id="Group_7065" data-name="Group 7065">
              <path id="Path_11038" data-name="Path 11038" d="M652.917,42.361a3.523,3.523,0,1,0,4.279-2.552h0a3.522,3.522,0,0,0-4.279,2.55Z" fill="#d4b698"/>
              <path id="Path_11039" data-name="Path 11039" d="M657.672,44.289s.626-2.475-1.84-2.684" fill="none" stroke="#000" stroke-linecap="round" stroke-linejoin="round" stroke-width="0.519"/>
            </g>
          </g>
          <path id="Path_11040" data-name="Path 11040" d="M632.171,142.465a86.6,86.6,0,0,0,.976,10.579H665.62c-.637-2.392-1.249-4.952-1.739-7.646a174.99,174.99,0,0,1-2.234-22.133H634.614S632.171,137.63,632.171,142.465Z" fill="#313131"/>
          <path id="Path_11041" data-name="Path 11041" d="M634.753,127.036c8.616.566,21.483.637,26.978.637a2.681,2.681,0,0,0,2.682-2.635c.008-.578.021-1.236.033-1.969.151-9.526.508-31.232.721-39.682.277-10.972-5.352-22.648-5.352-22.648L649,55.77a36.8,36.8,0,0,0-13.755,25.815c-1.257,15.023-2.339,31.986-2.846,40.223-.054.909-.1,1.709-.142,2.392A2.677,2.677,0,0,0,634.753,127.036Z" fill="#313131"/>
          <path id="Path_11042" data-name="Path 11042" d="M677.376,92.655l21.278,7.213.2,4.9-30.43-3.342Z" fill="#d4b698"/>
          <path id="Path_11043" data-name="Path 11043" d="M696.981,101.925a35.96,35.96,0,0,0,11.739.794l4.735-3.93c1.028-.747,1.484-.148,1.484-.148a1.256,1.256,0,0,1-.373,1.605l-3.554,3.962a5.527,5.527,0,0,1-1.712,1.063c-1.509.587-5.768.88-10.555.818Z" fill="#d5a579"/>
          <path id="Path_11044" data-name="Path 11044" d="M699.254,99.771a18.037,18.037,0,0,0,6.195-2.49c2.622-1.7,2.356.281,1.6.913s-2.942,2.282-3.2,2.662-.78,1.236,1.274,2.376c1.138.632-8.273-1.311-8.273-1.311Z" fill="#d5a579"/>
          <g id="Group_7067" data-name="Group 7067">
            <path id="Path_11045" data-name="Path 11045" d="M658.113,64.926,673.8,90.382l25.564,8.588-.837,7.118-26.072-3.258a11.853,11.853,0,0,1-7-3.466l-21.661-22.1Z" fill="#313131"/>
          </g>
          <path id="Path_11046" data-name="Path 11046" d="M642.787,39.133c0,9.023,9.778,15.777,16.345,16.338a4.107,4.107,0,0,0,1.207-.059c4.92-1.094-.733-13.172,1.446-18.936.683-1.8,13.692,4.692,13.692,2.657,0-.457-.016-.91-.054-1.353a16.346,16.346,0,0,0-32.636,1.353Z" fill="#e1cc73"/>
          <path id="Path_11047" data-name="Path 11047" d="M648.515,56.169l.978-2.933,8.242,3.492s2.209.759,2.082,4.01S648.515,56.169,648.515,56.169Z" fill="#313131"/>
          <path id="Path_11048" data-name="Path 11048" d="M661.089,49.607c.7,2.371.277,4.747-.7,5.723a.205.205,0,0,0-.05.084c4.92-1.094-.733-13.172,1.446-18.936.683-1.8,13.692,4.692,13.692,2.657,0-.457-.016-.91-.054-1.353a33.629,33.629,0,0,1-6.3-1.685,47.024,47.024,0,0,0-8.032-2.131,8.253,8.253,0,0,0-1.468,4.54A36.155,36.155,0,0,0,661.089,49.607Z" fill="#313131"/>
          <path id="Path_11049" data-name="Path 11049" d="M677.154,33.545,659.272,31.59a2.693,2.693,0,0,0-1.956,2.511c-.14,2.094,2.654,4.189,3.912,5.167s10.058,2.653,13.411,5.027,3.353,3.073,5.728,3.91C680.365,48.208,680.786,39.131,677.154,33.545Z" fill="#c1dedf" opacity="0.8" style="isolation: isolate"/>
          <circle id="Ellipse_574" data-name="Ellipse 574" cx="1.397" cy="1.397" r="1.397" transform="translate(659.272 33.126)"/>
          <path id="Path_11050" data-name="Path 11050" d="M637.6,71.164l5.746,1.762,6.705,1.676s13.132,20.388,17.6,23.461,31.2,6.7,31.2,6.7l.512-5.8L673.8,90.382l-9.5-15.5s-3.632-13.406-8.1-16.2-7.683-2.514-7.683-2.514A37.6,37.6,0,0,0,637.6,71.164Z" fill="#e1cc73"/>
          <path id="Path_11051" data-name="Path 11051" d="M634.753,127.036c8.616.566,21.483.637,26.978.637a2.681,2.681,0,0,0,2.682-2.635c.008-.578.021-1.236.033-1.969l-32.049-1.26c-.054.909-.1,1.709-.142,2.392A2.678,2.678,0,0,0,634.753,127.036Z" fill="#e1cc73"/>
          <line id="Line_751" data-name="Line 751" x1="13.272" y1="13.685" transform="translate(651.728 85.215)" fill="none" stroke="#000" stroke-miterlimit="10" stroke-width="0.5"/>
        </g>
      </g>
      <g id="Group_7077" data-name="Group 7077">
        <path id="Path_11052" data-name="Path 11052" d="M793.757,78.548,784.03,89.206l-22.765,2.038L760.076,96l26,2.038,15.8-11.21Z" fill="#b79479"/>
        <g id="Group_7070" data-name="Group 7070">
          <path id="Path_11053" data-name="Path 11053" d="M801.343,63.658s3.972-7.506,5.455,5.506-13.763,46.877-13.763,46.877l-.255-30.827S791.765,71.2,801.343,63.658Z" fill="#a3c3a5"/>
        </g>
        <g id="Group_7071" data-name="Group 7071">
          <path id="Path_11054" data-name="Path 11054" d="M812.915,61.011s9.025,6.913,10.449,13.248c1.331,5.919,3.569,51.463,3.569,51.463l-33.388.255c-2.313-1.269-1.029-30.327-1.02-31.337C792.81,63.462,812.915,61.011,812.915,61.011Z" fill="#a3c3a5"/>
        </g>
        <g id="Group_7074" data-name="Group 7074">
          <path id="Path_11055" data-name="Path 11055" d="M797.065,32.134c-.17.138-8.065,1.626-1.941,11.664l7.593-9.509Z"/>
          <path id="Path_11056" data-name="Path 11056" d="M800.087,34.623s-3.65.732-4.349,2.935l.318-3.811s-1.52-5.183,2.812-7.3a9.013,9.013,0,0,1,10.621,2.084c1.219,1.309,6.857,6.709,6.857,6.709s4.964,2.419-.79,9.481l-3.947-.11-1.321-6.133L804.8,35.51Z"/>
          <path id="Path_11057" data-name="Path 11057" d="M800.223,46.3a3.527,3.527,0,1,1-3.579-3.5A3.526,3.526,0,0,1,800.223,46.3Z" fill="#b79479"/>
          <path id="Path_11058" data-name="Path 11058" d="M801.255,51.836l.508,13.115a13.274,13.274,0,0,0,1.144-1.536l4.053.785c2.776-.052,5.42-.415,5.721-3.4l-.016-10.222Z" fill="#d4b698"/>
          <path id="Path_11059" data-name="Path 11059" d="M801.665,61.373s8.822-2.32,9.268-8.686l-9.568,1.985Z" fill="#b79479"/>
          <path id="Path_11060" data-name="Path 11060" d="M806.4,56.808l-4.083.076a7.377,7.377,0,0,1-7.483-7.271c0-.094,0-.188,0-.282l.169-9.474a8.685,8.685,0,0,1,8.472-8.565h0c4.751-.089,9.492,3.714,9.563,8.512l-.376,10.774A6.428,6.428,0,0,1,806.4,56.808Z" fill="#d4b698"/>
          <g id="Group_7072" data-name="Group 7072">
            <path id="Path_11061" data-name="Path 11061" d="M799.181,46.806l-.254,1.755a.632.632,0,0,0,.53.719l.04.005.91.074" fill="none" stroke="#202021" stroke-linecap="round" stroke-linejoin="round" stroke-width="0.449"/>
            <path id="Path_11062" data-name="Path 11062" d="M804.374,40.836s-1.907-.255-1.936.776c0,0-.005.7,1.659.878s2.1.029,2.257-.624S805.265,40.865,804.374,40.836Z"/>
            <path id="Path_11063" data-name="Path 11063" d="M796.773,41.93s1.578-.177,1.7.795c0,0,.068.658-1.313.772s-1.827-.13-1.953-.662C795.065,42.231,796.024,41.927,796.773,41.93Z"/>
            <path id="Path_11064" data-name="Path 11064" d="M802.548,45.712a.7.7,0,0,0,.729.669h.011a.71.71,0,0,0,.665-.75.7.7,0,0,0-.729-.67h-.01A.711.711,0,0,0,802.548,45.712Z"/>
            <path id="Path_11065" data-name="Path 11065" d="M796.239,45.585a.7.7,0,0,0,.728.67h.012a.713.713,0,0,0,.665-.751.7.7,0,0,0-.729-.67H796.9A.712.712,0,0,0,796.239,45.585Z"/>
            <path id="Path_11066" data-name="Path 11066" d="M797.2,51.569l.423-1.193a1.472,1.472,0,0,1,1.235-.477l3.379.275a1.476,1.476,0,0,1,1.093.6l.718,1.351Z"/>
          </g>
          <path id="Path_11067" data-name="Path 11067" d="M810.308,46.1s-3.372-.937-.674-6.968c0,0-8.4.325-9.439-5.811l4.358-3.276,8.03,2.872,1.867,5.727-1.161,4.582Z"/>
          <g id="Group_7073" data-name="Group 7073">
            <path id="Path_11068" data-name="Path 11068" d="M817.365,45.972a3.527,3.527,0,1,1-3.579-3.5A3.526,3.526,0,0,1,817.365,45.972Z" fill="#d4b698"/>
            <path id="Path_11069" data-name="Path 11069" d="M812.618,47.12s-.038-2.583,2.412-2.222" fill="none" stroke="#202021" stroke-linecap="round" stroke-linejoin="round" stroke-width="0.449"/>
          </g>
          <path id="Path_11070" data-name="Path 11070" d="M800.2,33.324a5.313,5.313,0,0,0-4.172,2.585l2.33-7.305,5.254-.868,3.547,1.861-1.451,4.69Z"/>
        </g>
        <path id="Path_11071" data-name="Path 11071" d="M794.565,125.44s.255,11.853-1.019,15.957c-.629,2.025-2.294,11.717-2.294,11.717H825.4s0-6.474.255-11.717-.764-16.185-.764-16.185Z"/>
        <path id="Path_11072" data-name="Path 11072" d="M813.165,59.228l-9.94,1.974-1.506,2.615-.083-3.083a6.843,6.843,0,0,0-1.783,1.357c-.259.44-1.275,4.586-1.275,4.586l1.976-3.057,1.147,3.757.03-.142a29.835,29.835,0,0,1,2.008-3.68c0,.382,2.422,5.35,2.422,5.35l8.41-6.242Z" fill="#30443e"/>
        <line id="Line_752" data-name="Line 752" x1="1.923" y2="0.366" transform="translate(800.374 52.211)" fill="none" stroke="#000" stroke-linecap="round" stroke-linejoin="round" stroke-width="0.519"/>
        <path id="Path_11073" data-name="Path 11073" d="M797.495,85.341,786.154,92.48,760.076,98.9l-.687,4.4,25.449-1.626a20.412,20.412,0,0,0,7.214-1.822l13.554-6.233Z" fill="#d4b698"/>
        <path id="Path_11074" data-name="Path 11074" d="M796.476,84.581l2.549-1.656,9.94,9.677-2.676,1.911Z" fill="#30443e"/>
        <path id="Path_11075" data-name="Path 11075" d="M799.024,82.921l4.841-3.567a10.048,10.048,0,0,1,2.931-4.586" fill="none" stroke="#30443e" stroke-miterlimit="10" stroke-width="0.5"/>
        <line id="Line_753" data-name="Line 753" y1="2.463" x2="4.588" transform="translate(808.497 90.14)" fill="none" stroke="#30443e" stroke-miterlimit="10" stroke-width="0.5"/>
        <g id="Group_7075" data-name="Group 7075">
          <path id="Path_11076" data-name="Path 11076" d="M761.431,91.286a20.51,20.51,0,0,0-2.124-2.717c-.764-.68-4.5-1.444-5.692-1.529a18.785,18.785,0,0,1-2.973-.594s-.765,1.083.34,1.507,4.672,1.294,4.587,1.719-3.876.9-4.555.733-4.9-1.274-5.48-1.4c-1-.219-1.142.286-1.094.69.042.361.627.6.627.6s4.194,1.411,5.129,1.751.786.308.786.308-3.462-.658-4.652-1.083-2.485-.8-2.825-.149c-.394.753,2.358,1.847,2.358,1.847s4.811,1.4,5.713,1.549c.692.114,8.666,1.529,8.666,1.529Z" fill="#b79479"/>
          <path id="Path_11077" data-name="Path 11077" d="M754.051,94.843s-3.059,0-3.505-.1a22.187,22.187,0,0,1-2.835-2.006s.446-1.083,1.306-.6,2.166,1.051,2.166,1.051l3.059-.1,1.625,1.02Z" fill="#b79479"/>
        </g>
        <g id="Group_7039" data-name="Group 7039">
          <path id="Path_11010" data-name="Path 11010" d="M753.843,102.533s2.269,1.215,1.486,1.6a17.527,17.527,0,0,1-6.792-.167,15.864,15.864,0,0,1-4.161-3.12c-.27-.605.476-.826.764-.764s2.985,1.649,3.342,1.837,4.12.573,4.12.573Z" fill="#c59166"/>
          <path id="Path_11011" data-name="Path 11011" d="M756.107,101.946s2.051,1.311,1.287,1.613a16.589,16.589,0,0,1-6.4-.654,14.961,14.961,0,0,1-3.7-3.247c-.2-.594.516-.749.781-.67s2.693,1.772,3.02,1.976a39.247,39.247,0,0,0,3.847.841Z" fill="#c59166"/>
          <path id="Path_11012" data-name="Path 11012" d="M761.591,102.3c-.464.96-2.794,1.592-4.4,2.065a9.741,9.741,0,0,1-8.226-1.121s1.723-.559,2.24-.646a13.361,13.361,0,0,0,2.843-1.593c.9-.6,1.118-2.111.043-2.326s-3.747-.3-5-.69a.894.894,0,0,1-.386-.156.905.905,0,0,1-.216-1.262,25.057,25.057,0,0,0,3.23.086,18.732,18.732,0,0,1,4.909-.171,14.36,14.36,0,0,1,4.6,2.13A3.657,3.657,0,0,1,761.591,102.3Z" fill="#d4b698"/>
          <path id="Path_11013" data-name="Path 11013" d="M753.075,102.328s4.293,1.507,3.61,2.046-7.317.755-8.487.486a15.824,15.824,0,0,1-4.733-2.156c-.39-.539.294-.915.586-.915s3.271.973,3.659,1.077,4.146-.328,4.146-.328Z" fill="#d4b698"/>
        </g>
      </g>
    </g>
    <path id="Path_7" data-name="Path 7" d="M661.572,44.069s7.284,3.283,9.7,1.335c2.55,1.806.709,14.757-9.952,9.466C662.768,53.037,662.551,50.514,661.572,44.069Z" fill="#233d83"/>
    <g id="Group_6842" data-name="Group 6842">
      <path id="Path_8" data-name="Path 8" d="M794.879,45.937s.841,3.073,14.226.383c-.126,1.461-2.688,6.278,1.925,8.266-.813.769-3.256,3.655-10.106,2.127-2.4-.582-4.99-1.383-6.047-5.767A18.512,18.512,0,0,1,794.879,45.937Z" fill="#233d83"/>
      <line id="Line_726" data-name="Line 726" x1="1.232" y2="0.537" transform="translate(809.062 45.963)" fill="#233d83" stroke="#233d83" stroke-linecap="round" stroke-miterlimit="10" stroke-width="0.25"/>
      <line id="Line_727" data-name="Line 727" x1="1.775" y2="5.238" transform="translate(810.915 49.297)" fill="#233d83" stroke="#233d83" stroke-linecap="round" stroke-miterlimit="10" stroke-width="0.25"/>
    </g>
  </g>
</svg>
