<svg id="Group_7292" data-name="Group 7292" xmlns="http://www.w3.org/2000/svg" xmlns:xlink="http://www.w3.org/1999/xlink" width="375" height="153" viewBox="0 0 375 153">
  <defs>
    <clipPath id="clip-path">
      <rect id="Rectangle_2089" data-name="Rectangle 2089" width="65" height="59.976" fill="none"/>
    </clipPath>
  </defs>
  <rect id="Rectangle_2077" data-name="Rectangle 2077" width="375" height="152.939" fill="#eaf3ff"/>
  <g id="Group_7052" data-name="Group 7052" transform="translate(269.268 5.356)">
    <g id="Group_7051" data-name="Group 7051">
      <g id="Group_7049" data-name="Group 7049" transform="translate(0 10.246)">
        <g id="Group_7042" data-name="Group 7042" transform="translate(42.45 7.297)">
          <path id="Path_11014" data-name="Path 11014" d="M337.988,153.006h-26.27V22.908h26.35l-.06,130.1" transform="translate(-311.718 -22.908)" fill="#b2cde9"/>
        </g>
        <g id="Group_7043" data-name="Group 7043" transform="translate(43.337 82.957)">
          <path id="Path_11015" data-name="Path 11015" d="M314.952,100.828c.051,1.257-.432,2.3-1.079,2.325s-1.214-.973-1.265-2.23.432-2.3,1.079-2.325S314.9,99.57,314.952,100.828Z" transform="translate(-312.604 -98.597)" fill="#fff"/>
        </g>
        <g id="Group_7044" data-name="Group 7044" transform="translate(44.472 84.249)">
          <path id="Path_11016" data-name="Path 11016" d="M313.74,99.89l5.172.693a.574.574,0,0,1,.5.546h0a.574.574,0,0,1-.67.589l-4.96-.842Z" transform="translate(-313.74 -99.89)" fill="#fff"/>
        </g>
        <g id="Group_7048" data-name="Group 7048">
          <g id="Group_7045" data-name="Group 7045" transform="translate(0 0)">
            <path id="Path_11017" data-name="Path 11017" d="M337.988,15.608V153H328.5V22.9h-50.61V153h-8.62V15.608Z" transform="translate(-269.268 -15.608)" fill="#d3e7fd"/>
          </g>
          <g id="Group_7046" data-name="Group 7046" transform="translate(4.31 7.297)">
            <rect id="Rectangle_2078" data-name="Rectangle 2078" width="4.31" height="130.098" fill="#b2cde9"/>
          </g>
          <g id="Group_7047" data-name="Group 7047" transform="translate(64.49)">
            <path id="Path_11018" data-name="Path 11018" d="M337.988,153h-4.23V15.608h4.31V153" transform="translate(-333.758 -15.608)" fill="#b2cde9"/>
          </g>
        </g>
      </g>
      <g id="Group_7050" data-name="Group 7050" transform="translate(26.107)">
        <rect id="Rectangle_2079" data-name="Rectangle 2079" width="14.161" height="3.161" fill="#d3e7fd"/>
      </g>
    </g>
  </g>
  <g id="Group_7054" data-name="Group 7054" transform="translate(61.427 22.222)">
    <rect id="Rectangle_2080" data-name="Rectangle 2080" width="55.721" height="113.901" transform="translate(0.826 0.826)" fill="#d3e7fd"/>
    <path id="Path_11019" data-name="Path 11019" d="M90.114,23.057s-11.425,51.669-27.861,55.2c0,0,6.641,36.242,7.243,58.7H62.253V23.057Z" transform="translate(-61.427 -22.231)" fill="#95b9d8"/>
    <path id="Path_11020" data-name="Path 11020" d="M90.3,23.057s11.424,51.669,27.86,55.2c0,0-6.64,36.242-7.242,58.7h7.242V23.057Z" transform="translate(-61.427 -22.231)" fill="#95b9d8"/>
    <rect id="Rectangle_2081" data-name="Rectangle 2081" width="2.031" height="114.117" transform="translate(27.672 0.61)" fill="#b2cde9"/>
    <rect id="Rectangle_2082" data-name="Rectangle 2082" width="0.5" height="114.117" transform="translate(13.713 0.61)" fill="#b2cde9"/>
    <rect id="Rectangle_2083" data-name="Rectangle 2083" width="0.5" height="114.117" transform="translate(43.793 0.61)" fill="#b2cde9"/>
    <path id="Path_11021" data-name="Path 11021" d="M117.975,51.149v.457l-55.721.229v-.457Z" transform="translate(-61.427 -22.243)" fill="#b2cde9"/>
    <path id="Path_11022" data-name="Path 11022" d="M117.975,107.839v.448l-55.721.224v-.448Z" transform="translate(-61.427 -22.265)" fill="#b2cde9"/>
    <rect id="Rectangle_2084" data-name="Rectangle 2084" width="55.721" height="1.899" transform="translate(0.826 56.634)" fill="#b2cde9"/>
    <g id="Group_7053" data-name="Group 7053">
      <path id="Path_11023" data-name="Path 11023" d="M118.8,137.784H61.427V22.231H118.8Zm-55.722-1.651h54.069V23.883H63.079Z" transform="translate(-61.427 -22.231)" fill="#b2cde9"/>
    </g>
  </g>
  <rect id="Rectangle_2085" data-name="Rectangle 2085" width="20.392" height="5.634" transform="translate(205.272 41.257)" fill="#b2cde9"/>
  <rect id="Rectangle_2086" data-name="Rectangle 2086" width="20.392" height="5.634" transform="translate(195.938 46.891)" fill="#d3e7fd"/>
  <g id="Group_7055" data-name="Group 7055" transform="translate(16.015 103.737)">
    <rect id="Rectangle_2087" data-name="Rectangle 2087" width="20.392" height="5.634" transform="translate(8.59)" fill="#b2cde9"/>
    <rect id="Rectangle_2088" data-name="Rectangle 2088" width="20.392" height="5.634" transform="translate(0 6.538)" fill="#d3e7fd"/>
  </g>
  <g id="Group_7061" data-name="Group 7061" transform="translate(168.801 92.857)">
    <g id="Group_7060" data-name="Group 7060" clip-path="url(#clip-path)">
      <g id="Group_7059" data-name="Group 7059" transform="translate(1.92 2.035)">
        <path id="Path_11024" data-name="Path 11024" d="M190.309,145.291a19.787,19.787,0,0,0-12.272-1.491c-2.226.368-4.547,1.034-6.062,2.706s-1.8,4.613-.062,6.049a5.814,5.814,0,0,0,3.822.97c3.244-.038,6.843-.61,9.435,1.342,1.478,1.113,2.462,2.963,4.23,3.511a4.181,4.181,0,0,0,4.6-2.045,7.141,7.141,0,0,0,.521-5.269A8.045,8.045,0,0,0,190.309,145.291Z" transform="translate(-170.721 -94.949)" fill="#d3e7fd"/>
        <path id="Path_11025" data-name="Path 11025" d="M198.859,128.771c-2.282,3.258-6.717,2.18-8.774.191s-2.926-4.872-3.718-7.621c-1.807-6.28-3.63-12.87-2.286-19.265a10.71,10.71,0,0,1,2.461-5.238,5.594,5.594,0,0,1,5.3-1.762c2.237.591,3.627,2.779,4.632,4.863a45.91,45.91,0,0,1,4.54,19.708c.011,3.174-.364,6.5-2.156,9.124" transform="translate(-170.721 -94.93)" fill="#d3e7fd"/>
        <path id="Path_11026" data-name="Path 11026" d="M205.127,133.45c-2.478-2.94-2.948-7.228-1.846-10.911a21.035,21.035,0,0,1,6.465-9.373,34.8,34.8,0,0,1,11.577-6.828,12.35,12.35,0,0,1,5.206-.885A5.466,5.466,0,0,1,230.9,108.1c1.219,2.323.051,5.14-1.213,7.438a88.088,88.088,0,0,1-7.6,11.574c-2.279,2.937-4.889,5.834-8.363,7.161s-7.081,1.171-8.922-1.236" transform="translate(-170.721 -94.934)" fill="#d3e7fd"/>
        <g id="Group_7056" data-name="Group 7056" transform="translate(11.259 53.029)">
          <path id="Path_11027" data-name="Path 11027" d="M199.014,177.943a7.046,7.046,0,0,1-.206-1.48l-.394-4.04a58.1,58.1,0,0,0-.909-5.927,45.687,45.687,0,0,0-2.155-7,25.765,25.765,0,0,0-3.574-6.329,13.33,13.33,0,0,0-4.517-3.754,12.686,12.686,0,0,0-3.805-1.186,7.12,7.12,0,0,1-1.474-.213,6.893,6.893,0,0,1,1.5-.024,11.562,11.562,0,0,1,3.967,1.033,13.334,13.334,0,0,1,4.766,3.786,25.222,25.222,0,0,1,3.7,6.457,42.8,42.8,0,0,1,2.14,7.109,50.128,50.128,0,0,1,.788,6c.128,1.715.177,3.1.2,4.065A6.858,6.858,0,0,1,199.014,177.943Z" transform="translate(-181.98 -147.98)" fill="#b2cde9"/>
        </g>
        <g id="Group_7057" data-name="Group 7057" transform="translate(20.443 13.093)">
          <path id="Path_11028" data-name="Path 11028" d="M198.736,174.818a2.954,2.954,0,0,1-.04-.688c0-.515,0-1.166.005-1.964,0-1.705,0-4.172-.088-7.219-.15-6.093-.675-14.505-1.689-23.751s-2.375-17.567-3.608-23.536c-.292-1.5-.585-2.843-.862-4.021s-.489-2.2-.706-3.025l-.46-1.91a2.968,2.968,0,0,1-.12-.677,2.819,2.819,0,0,1,.239.644l.571,1.882c.253.817.512,1.829.808,3.006s.633,2.517.952,4.01a222.868,222.868,0,0,1,3.794,23.56c1.016,9.265,1.473,17.7,1.514,23.811.036,3.054-.029,5.527-.107,7.233-.049.8-.088,1.447-.12,1.963A2.908,2.908,0,0,1,198.736,174.818Z" transform="translate(-191.163 -108.028)" fill="#b2cde9"/>
        </g>
        <g id="Group_7058" data-name="Group 7058" transform="translate(27.947 18.067)">
          <path id="Path_11029" data-name="Path 11029" d="M198.7,158.55a13.155,13.155,0,0,1,.014-2.052c.076-1.318.257-3.225.629-5.561a73.268,73.268,0,0,1,1.809-8.1,71.647,71.647,0,0,1,3.389-9.585,51.06,51.06,0,0,1,9.952-15.491,25.485,25.485,0,0,1,2.341-2.176c.36-.3.677-.606,1-.845s.627-.434.908-.627a12.986,12.986,0,0,1,1.729-1.106,60.809,60.809,0,0,0-5.666,5.052,53.79,53.79,0,0,0-9.7,15.435,76.466,76.466,0,0,0-3.408,9.5,82.294,82.294,0,0,0-1.925,8.021c-.424,2.311-.669,4.2-.817,5.506A13.325,13.325,0,0,1,198.7,158.55Z" transform="translate(-198.667 -113.005)" fill="#b2cde9"/>
        </g>
      </g>
    </g>
  </g>
  <g id="Group_7069" data-name="Group 7069" transform="translate(91.206 22.68)">
    <g id="Group_7068" data-name="Group 7068">
      <g id="Group_7066" data-name="Group 7066" transform="translate(15.012 4.204)">
        <path id="Path_11031" data-name="Path 11031" d="M120.354,51.7l-2.942,11.345-10.493-3.562,4.5-16.89Z" transform="translate(-106.218 -26.901)" fill="#e1b899"/>
        <path id="Path_11032" data-name="Path 11032" d="M118.352,59.31c.1-.181-2.142-7.182-2.142-7.182l3.348,2.263Z" transform="translate(-106.218 -26.905)" fill="#c69678"/>
        <path id="Path_11033" data-name="Path 11033" d="M126.978,30.949s5.056,1.738,4.242,8.325c0,0-.642,4.766-1.622,11.619a5.731,5.731,0,0,1-7.674,4.631,17.111,17.111,0,0,1-6.192-4.142l-2.539-3.321c-5.7-9.029,2.839-20.513,13.045-17.357C126.482,30.78,126.729,30.861,126.978,30.949Z" transform="translate(-106.218 -26.896)" fill="#e1b899"/>
        <path id="Path_11034" data-name="Path 11034" d="M129.708,44.551,131.7,47.2a.534.534,0,0,1-.459.854l-2.4-.145Z" transform="translate(-106.218 -26.902)" fill="#e1b899"/>
        <g id="Group_7064" data-name="Group 7064" transform="translate(20.12 12.252)">
          <g id="Group_7063" data-name="Group 7063">
            <path id="Path_11035" data-name="Path 11035" d="M128.211,39.171s1.776.009,1.777.811c0,0-.012.541-1.561.5s-1.948-.2-2.079-.728S127.38,39.1,128.211,39.171Z" transform="translate(-126.338 -39.151)"/>
          </g>
        </g>
        <path id="Path_11036" data-name="Path 11036" d="M106.716,33.48c.925-2.637,4.076-5.233,6.775-5.96a15.151,15.151,0,0,1,17.116,6.437c-17.015-7.409-12.519,7.552-12.519,7.552a19.443,19.443,0,0,0-2.813,3.389c-2.068,4.756-5.212,4.212-5.212,4.212C107.316,41.552,105.219,37.747,106.716,33.48Z" transform="translate(-106.218 -26.895)" fill="#d9594f"/>
        <path id="Path_11037" data-name="Path 11037" d="M127.917,44.371a.751.751,0,1,0,.635-.85A.751.751,0,0,0,127.917,44.371Z" transform="translate(-106.218 -26.901)"/>
        <line id="Line_750" data-name="Line 750" x1="1.774" y1="0.734" transform="translate(20.88 21.813)" fill="none" stroke="#000" stroke-linecap="round" stroke-linejoin="round" stroke-width="0.519"/>
        <g id="Group_7065" data-name="Group 7065" transform="translate(5.626 12.703)">
          <path id="Path_11038" data-name="Path 11038" d="M111.952,42.263a3.523,3.523,0,1,0,4.279-2.552A3.522,3.522,0,0,0,111.952,42.263Z" transform="translate(-111.844 -39.603)" fill="#e1b899"/>
          <path id="Path_11039" data-name="Path 11039" d="M116.707,44.192s.626-2.475-1.84-2.684" transform="translate(-111.844 -39.604)" fill="none" stroke="#000" stroke-linecap="round" stroke-linejoin="round" stroke-width="0.519"/>
        </g>
      </g>
      <path id="Path_11040" data-name="Path 11040" d="M91.206,142.4a86.665,86.665,0,0,0,.976,10.579h32.473c-.637-2.392-1.249-4.952-1.739-7.646a175.026,175.026,0,0,1-2.234-22.133H93.649S91.206,137.565,91.206,142.4Z" transform="translate(-91.206 -22.729)" fill="#2d2d2d"/>
      <path id="Path_11041" data-name="Path 11041" d="M93.788,126.944c8.616.566,21.483.637,26.978.637a2.68,2.68,0,0,0,2.682-2.635c.008-.578.021-1.236.033-1.969.151-9.526.508-31.232.721-39.682.277-10.972-5.352-22.648-5.352-22.648l-10.817-4.969A36.805,36.805,0,0,0,94.278,81.493c-1.257,15.023-2.339,31.986-2.846,40.223-.054.909-.1,1.709-.142,2.392A2.677,2.677,0,0,0,93.788,126.944Z" transform="translate(-91.206 -22.702)" fill="#2d2d2d"/>
      <path id="Path_11042" data-name="Path 11042" d="M136.411,92.578l21.278,7.213.2,4.9-30.43-3.342Z" transform="translate(-91.206 -22.717)" fill="#e1b899"/>
      <path id="Path_11043" data-name="Path 11043" d="M156.016,101.85a35.952,35.952,0,0,0,11.739.794l4.735-3.93c1.028-.747,1.484-.148,1.484-.148a1.255,1.255,0,0,1-.373,1.605l-3.554,3.962a5.516,5.516,0,0,1-1.712,1.063c-1.509.587-5.768.88-10.555.818Z" transform="translate(-91.206 -22.719)" fill="#e6a877"/>
      <path id="Path_11044" data-name="Path 11044" d="M158.289,99.695a18.02,18.02,0,0,0,6.195-2.49c2.622-1.7,2.356.281,1.6.913s-2.942,2.282-3.195,2.662-.78,1.236,1.274,2.376c1.138.632-8.273-1.311-8.273-1.311Z" transform="translate(-91.206 -22.718)" fill="#e6a877"/>
      <g id="Group_7067" data-name="Group 7067" transform="translate(11.624 42.132)">
        <path id="Path_11045" data-name="Path 11045" d="M117.148,64.838l15.688,25.456L158.4,98.882,157.563,106l-26.072-3.258a11.853,11.853,0,0,1-7-3.466L102.83,77.175Z" transform="translate(-102.83 -64.838)" fill="#2d2d2d"/>
      </g>
      <path id="Path_11046" data-name="Path 11046" d="M101.822,39.028c0,9.023,9.778,15.777,16.345,16.338a4.076,4.076,0,0,0,1.207-.059c4.92-1.094-.733-13.172,1.446-18.936.683-1.8,13.692,4.692,13.692,2.657,0-.457-.016-.91-.054-1.353a16.346,16.346,0,0,0-32.636,1.353Z" transform="translate(-91.206 -22.689)" fill="#eace6e"/>
      <path id="Path_11047" data-name="Path 11047" d="M107.55,56.076l.978-2.933,8.242,3.492s2.209.759,2.082,4.01S107.55,56.076,107.55,56.076Z" transform="translate(-91.206 -22.701)" fill="#2d2d2d"/>
      <path id="Path_11048" data-name="Path 11048" d="M120.124,49.506c.7,2.371.277,4.747-.7,5.723a.211.211,0,0,0-.05.084c4.92-1.094-.733-13.172,1.446-18.936.683-1.8,13.692,4.692,13.692,2.657,0-.457-.016-.91-.054-1.353a33.611,33.611,0,0,1-6.3-1.685,47.059,47.059,0,0,0-8.032-2.131,8.259,8.259,0,0,0-1.468,4.54A36.152,36.152,0,0,0,120.124,49.506Z" transform="translate(-91.206 -22.693)" fill="#2d2d2d"/>
      <path id="Path_11049" data-name="Path 11049" d="M136.189,33.444l-17.882-1.955A2.694,2.694,0,0,0,116.351,34c-.14,2.094,2.654,4.189,3.912,5.167s10.058,2.653,13.411,5.027,3.353,3.073,5.728,3.91C139.4,48.107,139.821,39.03,136.189,33.444Z" transform="translate(-91.206 -22.693)" fill="#b7e0e1" opacity="0.8"/>
      <ellipse id="Ellipse_574" data-name="Ellipse 574" cx="1.397" cy="1.396" rx="1.397" ry="1.396" transform="translate(27.101 10.333)"/>
      <path id="Path_11050" data-name="Path 11050" d="M96.635,71.072l5.746,1.762,6.705,1.676s13.132,20.388,17.6,23.461,31.2,6.7,31.2,6.7l.512-5.8L132.836,90.29l-9.5-15.5s-3.632-13.406-8.1-16.2-7.683-2.514-7.683-2.514A37.6,37.6,0,0,0,96.635,71.072Z" transform="translate(-91.206 -22.702)" fill="#eace6e"/>
      <path id="Path_11051" data-name="Path 11051" d="M93.788,126.97c8.616.566,21.483.637,26.978.637a2.68,2.68,0,0,0,2.682-2.635c.008-.578.021-1.236.033-1.969l-32.049-1.26c-.054.909-.1,1.709-.142,2.392A2.677,2.677,0,0,0,93.788,126.97Z" transform="translate(-91.206 -22.728)" fill="#eace6e"/>
      <line id="Line_751" data-name="Line 751" x1="13.272" y1="13.685" transform="translate(19.557 62.421)" fill="none" stroke="#000" stroke-miterlimit="10" stroke-width="0.5"/>
    </g>
  </g>
  <g id="Group_7077" data-name="Group 7077" transform="translate(194.358 25.384)">
    <path id="Path_11227" data-name="Path 11227" d="M-2656.665,1378.238s-1.122,4.915-.45,6.245.257,1-.466,1.609-1.575,1.279-1.6,1.642a13.278,13.278,0,0,0-.278,1.7c.044.411-.239,1.972.278,2.731a8.71,8.71,0,0,0,2.065,2c.341.151,1.272.655,1.272.655l.694.485,4.573-10.83Z" transform="translate(2713.642 -1284.384)" fill="#b79479"/>
    <path id="Path_11052" data-name="Path 11052" d="M252.792,78.465l-9.727,10.658L220.3,91.161l-1.189,4.756,26,2.038,15.8-11.21Z" transform="matrix(0.391, -0.921, 0.921, 0.391, -111.401, 254.311)" fill="#c69678"/>
    <g id="Group_7070" data-name="Group 7070" transform="translate(57.426 36.006)">
      <path id="Path_11053" data-name="Path 11053" d="M260.378,63.568s3.972-7.506,5.455,5.506-13.763,46.877-13.763,46.877l-.255-30.827S250.8,71.112,260.378,63.568Z" transform="translate(-251.784 -61.414)" fill="#96c5a6"/>
    </g>
    <g id="Group_7071" data-name="Group 7071" transform="translate(56.839 35.513)">
      <path id="Path_11054" data-name="Path 11054" d="M271.95,60.921s9.025,6.913,10.449,13.248c1.331,5.919,3.569,51.463,3.569,51.463l-33.388.255c-2.313-1.269-1.029-30.327-1.02-31.337C251.845,63.372,271.95,60.921,271.95,60.921Z" transform="translate(-251.197 -60.921)" fill="#96c5a6"/>
    </g>
    <g id="Group_7074" data-name="Group 7074" transform="translate(57.477)">
      <path id="Path_11055" data-name="Path 11055" d="M256.1,32.033c-.17.138-8.065,1.626-1.941,11.664l7.593-9.509Z" transform="translate(-251.835 -25.397)"/>
      <path id="Path_11056" data-name="Path 11056" d="M259.122,34.519s-3.65.732-4.349,2.935l.318-3.811s-1.52-5.183,2.812-7.3a9.013,9.013,0,0,1,10.621,2.084c1.219,1.309,6.857,6.709,6.857,6.709s4.964,2.419-.79,9.481l-3.947-.11-1.321-6.133-5.485-2.968Z" transform="translate(-251.835 -25.394)"/>
      <path id="Path_11057" data-name="Path 11057" d="M259.258,46.2a3.527,3.527,0,1,1-3.579-3.5A3.562,3.562,0,0,1,259.258,46.2Z" transform="translate(-251.835 -25.401)" fill="#c69678"/>
      <path id="Path_11058" data-name="Path 11058" d="M260.29,51.742l.508,13.115a13.2,13.2,0,0,0,1.144-1.536l4.053.785c2.776-.052,5.42-.415,5.721-3.4L271.7,50.484Z" transform="translate(-251.835 -25.404)" fill="#e1b899"/>
      <path id="Path_11059" data-name="Path 11059" d="M260.7,61.28s8.822-2.32,9.268-8.686L260.4,54.579Z" transform="translate(-251.835 -25.405)" fill="#c69678"/>
      <path id="Path_11060" data-name="Path 11060" d="M265.437,56.706l-4.083.076a7.378,7.378,0,0,1-7.482-7.553l.169-9.474a8.685,8.685,0,0,1,8.472-8.565h0c4.751-.089,9.492,3.714,9.563,8.512L271.7,50.476A6.427,6.427,0,0,1,265.437,56.706Z" transform="translate(-251.835 -25.396)" fill="#e1b899"/>
      <g id="Group_7072" data-name="Group 7072" transform="translate(2.39 15.31)">
        <path id="Path_11061" data-name="Path 11061" d="M258.216,46.71l-.254,1.755a.632.632,0,0,0,.57.724l.91.074" transform="translate(-254.225 -40.712)" fill="none" stroke="#1a1a1b" stroke-linecap="round" stroke-linejoin="round" stroke-width="0.449"/>
        <path id="Path_11062" data-name="Path 11062" d="M263.409,40.738s-1.907-.255-1.936.776c0,0-.005.7,1.659.878s2.1.029,2.257-.624S264.3,40.767,263.409,40.738Z" transform="translate(-254.225 -40.71)"/>
        <path id="Path_11063" data-name="Path 11063" d="M255.808,41.833s1.578-.177,1.7.795c0,0,.068.658-1.313.772s-1.827-.13-1.953-.662C254.1,42.134,255.059,41.83,255.808,41.833Z" transform="translate(-254.225 -40.711)"/>
        <path id="Path_11064" data-name="Path 11064" d="M261.583,45.616a.7.7,0,0,0,.74.669.71.71,0,0,0,.665-.75.7.7,0,0,0-.739-.669A.712.712,0,0,0,261.583,45.616Z" transform="translate(-254.225 -40.712)"/>
        <path id="Path_11065" data-name="Path 11065" d="M255.274,45.489a.7.7,0,0,0,.74.67.712.712,0,0,0,.665-.751.7.7,0,0,0-.74-.669A.712.712,0,0,0,255.274,45.489Z" transform="translate(-254.225 -40.712)"/>
        <path id="Path_11066" data-name="Path 11066" d="M256.239,51.475l.423-1.193a1.474,1.474,0,0,1,1.235-.477l3.379.275a1.479,1.479,0,0,1,1.093.6l.718,1.351Z" transform="translate(-254.225 -40.714)"/>
      </g>
      <path id="Path_11067" data-name="Path 11067" d="M269.343,46s-3.372-.937-.674-6.968c0,0-8.4.325-9.439-5.811l4.358-3.276,8.03,2.872,1.867,5.727-1.161,4.582Z" transform="translate(-251.835 -25.396)"/>
      <g id="Group_7073" data-name="Group 7073" transform="translate(17.508 16.977)">
        <path id="Path_11068" data-name="Path 11068" d="M276.4,45.874a3.527,3.527,0,1,1-3.579-3.5A3.562,3.562,0,0,1,276.4,45.874Z" transform="translate(-269.343 -42.377)" fill="#e1b899"/>
        <path id="Path_11069" data-name="Path 11069" d="M271.653,47.023s-.038-2.583,2.412-2.222" transform="translate(-269.343 -42.378)" fill="none" stroke="#1a1a1b" stroke-linecap="round" stroke-linejoin="round" stroke-width="0.449"/>
      </g>
      <path id="Path_11070" data-name="Path 11070" d="M259.23,33.221a5.316,5.316,0,0,0-4.172,2.585l2.33-7.305,5.254-.868,3.547,1.861-1.451,4.69Z" transform="translate(-251.835 -25.395)"/>
    </g>
    <path id="Path_11071" data-name="Path 11071" d="M253.6,125.376s.255,11.853-1.019,15.957c-.629,2.025-2.294,11.717-2.294,11.717h34.152s0-6.474.255-11.717-.764-16.185-.764-16.185Z" transform="translate(-194.358 -25.434)"/>
    <path id="Path_11072" data-name="Path 11072" d="M272.2,59.137l-9.94,1.974-1.506,2.615-.083-3.083A6.848,6.848,0,0,0,258.888,62c-.259.44-1.275,4.586-1.275,4.586l1.976-3.057,1.147,3.757.03-.142c.248-.5,2.008-4.035,2.008-3.68,0,.382,2.422,5.35,2.422,5.35l8.41-6.242Z" transform="translate(-194.358 -25.407)" fill="#1f423b"/>
    <line id="Line_752" data-name="Line 752" x1="1.923" y2="0.366" transform="translate(65.051 26.713)" fill="none" stroke="#000" stroke-linecap="round" stroke-linejoin="round" stroke-width="0.519"/>
    <path id="Path_11073" data-name="Path 11073" d="M256.53,85.261,245.189,92.4,221.1,97.872l-2.676,5.35,25.449-1.626a20.393,20.393,0,0,0,7.214-1.822l13.554-6.233Z" transform="translate(-194.358 -25.418)" fill="#e1b899"/>
    <path id="Path_11074" data-name="Path 11074" d="M255.511,84.5l2.549-1.656L268,92.521l-2.676,1.911Z" transform="translate(-194.358 -25.417)" fill="#1f423b"/>
    <path id="Path_11075" data-name="Path 11075" d="M258.059,82.837,262.9,79.27a10.048,10.048,0,0,1,2.931-4.586" transform="translate(-194.358 -25.414)" fill="none" stroke="#1f423b" stroke-miterlimit="10" stroke-width="0.5"/>
    <line id="Line_753" data-name="Line 753" y1="2.463" x2="4.588" transform="translate(73.174 64.642)" fill="none" stroke="#1f423b" stroke-miterlimit="10" stroke-width="0.5"/>
    <g id="Group_7076" data-name="Group 7076" transform="translate(0 71.695)">
      <path id="Path_11078" data-name="Path 11078" d="M215.806,97.224a19.086,19.086,0,0,1-10.859,2.955c-6.749-.079-10.352,6.97-10.352,6.97l8.665,1.324a12.069,12.069,0,0,1,7.62-5.018,14.581,14.581,0,0,0,8.006-4.416Z" transform="translate(-194.358 -97.118)" fill="#06974a"/>
      <path id="Path_11079" data-name="Path 11079" d="M216.836,97.121A18.928,18.928,0,0,1,205.7,98.37c-6.6-1.13-11.337,5.318-11.337,5.318l8.257,2.663a12.212,12.212,0,0,1,8.325-3.8,14.675,14.675,0,0,0,8.6-3.145Z" transform="translate(-194.358 -97.118)" fill="#1ab550"/>
      <path id="Path_11080" data-name="Path 11080" d="M221.7,98.56a35.729,35.729,0,0,1-10.614,4.912l-5.794-1.963c-1.221-.328-1.431.391-1.431.391a1.249,1.249,0,0,0,.918,1.357l4.71,2.413a5.5,5.5,0,0,0,1.967.378c1.61.007,5.667-1.237,10.088-3Z" transform="translate(-194.358 -97.118)" fill="#e1b899"/>
      <path id="Path_11081" data-name="Path 11081" d="M218.822,97.368a17.911,17.911,0,0,1-6.637-.107c-3.04-.649-2.087,1.1-1.158,1.415s3.544,1.072,3.914,1.333,1.164.87-.337,2.659c-.831.992,8.391-4.473,8.391-4.473Z" transform="translate(-194.358 -97.118)" fill="#e1b899"/>
    </g>
  </g>
</svg>
